<svg width="834" height="557" viewBox="0 0 834 557" fill="none" xmlns="http://www.w3.org/2000/svg">
<path d="M142.898 54.0658C222.424 73.2472 288.182 8.36179 365.067 4.64713C403.54 2.78759 445.461 11.5653 478.392 32.0819C501.943 46.7599 520.18 75.2875 516.689 103.771C514.81 119.106 507.005 133.537 495.564 143.848C489.837 149.008 482.97 152.255 477.287 157.402C469.768 164.206 462.272 171.036 454.81 177.91C434.856 196.298 434.601 227.615 454.036 246.554C471.384 263.462 484.916 285.111 471.371 305.041C443.704 345.749 427.408 349.661 425.044 370.636C424.098 379.035 423.42 372.262 423.42 372.262L401.229 325.126C401.229 325.126 290.655 310.669 251.847 277.448C224.19 253.768 213 215.383 187.552 189.565C171.599 173.38 151.006 170.855 129.793 164.276C103.438 156.102 77.3432 147.087 51.5651 137.243C36.6819 131.558 21.5523 125.385 9.79013 114.629C-6.72178 99.5319 -2.77759 55.0837 24.9066 43.0276C56.6626 29.1956 109.614 46.0416 142.902 54.0702L142.898 54.0658Z" fill="#8B5DD0"/>
<path d="M619.883 551.069H628.903L631.342 527.212H617.449L619.883 551.069Z" fill="#F2F2F2"/>
<path d="M669.142 551.069H678.161L680.6 527.212H666.703L669.142 551.069Z" fill="#F2F2F2"/>
<path d="M579.835 551.073H588.855L591.289 527.212H577.396L579.835 551.073Z" fill="#E1DDE7"/>
<path d="M628.169 197.276H626.51V279.409H628.169V197.276Z" fill="#5C407B"/>
<path d="M640.659 209.007H636.631V367.31H640.659V209.007Z" fill="#5C407B"/>
<path d="M608.735 369.142C623.029 369.142 634.615 366.036 634.615 362.207C634.615 361.502 634.219 360.819 633.483 360.175L633.607 360.131H644.009L644.04 360.144C643.282 360.796 642.873 361.488 642.873 362.207C642.873 367.111 659.094 369.173 669.082 369.142H669.087V370.645H608.102V369.142H608.115C608.322 369.142 608.524 369.142 608.731 369.142H608.735Z" fill="#5C407B"/>
<path d="M648.936 210.24H625.526C622.868 210.24 620.711 208.081 620.711 205.42V204.331H653.752V205.42C653.752 208.081 651.595 210.24 648.936 210.24Z" fill="#5C407B"/>
<path d="M589.83 200.18C589.83 201.515 595.447 202.723 604.484 203.573C634.713 206.429 685.38 204.344 685.38 200.18C685.38 200.013 654.165 142.46 654.165 142.46H621.045C621.045 142.46 589.83 200.013 589.83 200.18Z" fill="#F36B80"/>
<path d="M624.486 280.277C624.486 281.7 625.741 282.85 627.286 282.85C628.831 282.85 630.086 281.696 630.086 280.277C630.086 278.858 628.831 277.704 627.286 277.704C625.741 277.704 624.486 278.854 624.486 280.277Z" fill="#184655"/>
<path d="M725.97 370.636H571.178V527.763H725.97V370.636Z" fill="#F2F2F2"/>
<path d="M616.065 370.636H571.178V527.763H616.065V370.636Z" fill="#E1DDE7"/>
<path d="M615.916 424.814H721.6V422.104H615.916V424.814Z" fill="#E1DDE7"/>
<path d="M615.916 468.293H721.6V465.583H615.916V468.293Z" fill="#E1DDE7"/>
<path d="M296.706 551.073L299.373 464.455C299.466 461.471 301.332 458.876 304.127 457.845C304.929 457.55 305.769 457.4 306.632 457.4C306.711 457.4 306.786 457.4 306.865 457.4C308.807 457.462 310.607 458.272 311.936 459.691C313.266 461.106 313.966 462.961 313.904 464.904C313.9 465.058 313.887 465.248 313.869 465.42L305.14 551.077H296.701L296.706 551.073Z" fill="#5C407B"/>
<path d="M242.197 551.434L239.529 464.816C239.436 461.833 237.57 459.237 234.775 458.206C233.974 457.911 233.133 457.761 232.27 457.761C232.191 457.761 232.116 457.761 232.037 457.761C230.095 457.823 228.295 458.634 226.966 460.053C225.636 461.467 224.936 463.322 224.998 465.265C224.998 465.42 225.015 465.609 225.033 465.781L233.762 551.439H242.201L242.197 551.434Z" fill="#5C407B"/>
<path d="M226.737 472.774H315.833C322.225 472.774 327.406 467.588 327.406 461.19C327.406 453.289 321.006 446.882 313.113 446.882H229.457C221.565 446.882 215.164 453.289 215.164 461.19C215.164 467.588 220.345 472.774 226.737 472.774Z" fill="#F2F2F2"/>
<path d="M136.345 551.069H800.153C801.562 551.069 802.795 552.135 802.887 553.541C802.988 555.083 801.765 556.365 800.246 556.365H136.345C134.883 556.365 133.699 555.18 133.699 553.717C133.699 552.254 134.883 551.069 136.345 551.069Z" fill="#8B5DD0"/>
<path d="M442.128 118.25L440.715 129.562L453.045 130.293L453.3 125.966L445.583 125.508L446.424 118.788L442.128 118.25Z" fill="white"/>
<path d="M171.145 551.073C171.369 549.747 172.421 548.746 173.693 548.746H220.284C221.556 548.746 222.608 549.751 222.833 551.073H171.145Z" fill="#F36B80"/>
<path d="M206.247 548.786L220.5 548.75C220.5 548.75 217.705 543.15 212.7 540.444C207.695 537.734 199.045 537.791 199.045 537.791L206.251 548.786H206.247Z" fill="#F36B80"/>
<path d="M196.133 548.817C196.133 548.817 195.169 538.122 198.862 537.792C202.555 537.461 206.249 548.786 206.249 548.786L196.137 548.817H196.133Z" fill="#E25A74"/>
<path d="M138.422 551.064C138.585 545.574 143.484 541.167 149.511 541.167C155.537 541.167 160.436 545.574 160.599 551.064H138.422Z" fill="#F36B80"/>
<path d="M137.039 551.086C137.149 549.769 137.669 548.773 138.294 548.773H161.241C161.866 548.773 162.386 549.769 162.496 551.086H137.039Z" fill="#E25A74"/>
<path d="M550.406 245.386C539.902 243.893 530.13 247.832 522.752 255.451C505.862 272.892 518.887 284.062 513.332 306.905C516.444 310.364 520.287 313.092 525.297 314.432C548.966 321.046 575.528 317.322 593.418 299.375C593.51 299.291 593.607 299.203 593.699 299.115C588.668 286.085 580.234 268.159 576.787 263.858C570.127 255.543 563.383 247.228 550.406 245.382V245.386Z" fill="#472A6A"/>
<path d="M548.596 293.646C548.596 293.646 548.697 294.184 548.882 295.1C549.767 299.489 552.535 312.559 554.842 316.564C557.629 321.403 548.543 343.171 536.679 341.289C533.149 340.729 538.687 329.59 537.494 324.196C536.82 321.147 534.773 311.651 533.123 303.971C531.855 298.07 530.82 293.245 530.82 293.245L548.596 293.651V293.646Z" fill="#FFB3C5"/>
<path d="M548.882 295.101C548.965 295.519 549.067 296.021 549.185 296.581C547.962 298.705 546.315 300.688 544.154 302.424C540.571 305.306 536.996 306.5 533.66 306.456C533.479 305.61 533.299 304.777 533.123 303.966C531.855 298.066 530.82 293.241 530.82 293.241L548.596 293.646C548.596 293.646 548.697 294.184 548.882 295.101Z" fill="#EA94AD"/>
<path d="M536.31 254.816C536.31 254.816 543.56 255.742 548.812 261.981C554.063 268.221 559.724 287.512 546.677 298C533.629 308.487 520.74 296.616 518.825 284.027C516.915 271.437 517.302 254.362 536.306 254.816H536.31Z" fill="#FFB3C5"/>
<path d="M516.816 283.882C518.375 286.662 520.99 288.2 522.654 287.319C524.322 286.437 524.41 283.467 522.852 280.691C521.293 277.911 518.678 276.373 517.015 277.254C515.346 278.136 515.258 281.106 516.816 283.886V283.882Z" fill="#FFB3C5"/>
<path d="M534.102 254.525C534.102 254.525 545.296 272.874 553.303 273.72C561.31 274.566 562.362 284.318 562.362 284.318C562.362 284.318 559.501 261.853 551.573 257.522C543.645 253.19 534.102 254.525 534.102 254.525Z" fill="#472A6A"/>
<path d="M550.685 278.091C550.033 281.347 551.345 284.335 553.612 284.762C555.879 285.19 558.243 282.894 558.894 279.638C559.546 276.381 558.234 273.394 555.967 272.962C553.7 272.534 551.336 274.83 550.685 278.087V278.091Z" fill="#FFB3C5"/>
<path d="M618.37 331.815L616.178 330.691C603.157 324.033 587.393 329.546 580.918 343.025L532.994 442.739C527.117 454.963 513.708 461.145 501.026 457.47L413.453 432.102C401.633 428.678 389.405 435.989 386.332 448.314L530.709 497.468L618.379 331.806L618.37 331.815Z" fill="#31DAE7"/>
<path d="M280.809 432.2C280.809 432.2 209.906 428.04 207.133 432.429C204.36 436.822 231.375 443.079 233.924 444.683C255.656 458.352 253.693 449.936 258.544 448.781C263.395 447.627 276.649 446.997 276.649 446.997L280.805 432.2H280.809Z" fill="#EA94AD"/>
<path d="M523.791 461.524C523.791 461.524 521.229 466.292 518.803 467.468C509.858 471.804 492.537 465.221 492.537 465.221L383.569 440.029L268.087 447.701C268.087 447.701 264.148 433.569 266.058 427.792L371.829 405.491L493.254 417.825L523.791 461.52V461.524Z" fill="#E25A74"/>
<path d="M386.324 450.319C386.756 447.032 387.323 443.767 389.335 441.361C394.657 434.993 404.764 432.38 413.295 434.764L517.451 466.932C518.358 467.214 519.344 467.028 520.092 466.438C521.122 465.627 522.487 464.622 522.689 464.816C527.351 469.236 530.028 497.23 530.028 497.23L529.887 497.486L386.324 450.323V450.319Z" fill="#31DAE7"/>
<path d="M294.443 434.782C294.443 434.782 283.716 439.104 274.78 443.63C270.928 445.582 266.583 449.64 264.945 450.041C257.233 451.936 255.525 447.411 252.409 442.727C250.441 439.774 241.932 431.543 236.398 425.929C233.159 422.642 231.024 417.984 232.467 416.446C236.799 411.841 247.434 423.809 256.287 426.876C260.979 428.502 266.05 427.07 271.055 425.894C276.981 424.506 284.724 419.936 284.724 419.936L294.443 434.777V434.782Z" fill="#FFB3C5"/>
<path d="M536.821 508.744C540.4 508.744 543.86 506.775 545.625 503.338L627.339 344.114C629.862 339.2 627.969 333.15 623.114 330.599C618.258 328.048 612.276 329.964 609.753 334.878L528.039 494.102C525.517 499.015 527.41 505.065 532.265 507.616C533.726 508.383 535.285 508.744 536.821 508.744Z" fill="#5C407B"/>
<path d="M378.211 452.218C379.827 446.71 385.598 443.55 391.105 445.168C392.742 445.648 537.982 488.307 540.579 489.069L532.308 508.313L385.259 465.12C379.756 463.503 376.6 457.726 378.216 452.218H378.211Z" fill="#5C407B"/>
<path d="M549.445 551.069L529.217 501.579C529.112 501.315 529.01 501.033 528.927 500.755C527.452 495.882 530.208 490.735 535.076 489.259C539.945 487.783 545.087 490.541 546.561 495.415L563.214 550.505C563.267 550.685 563.315 550.888 563.355 551.069H549.445Z" fill="#5C407B"/>
<path d="M489.836 417.253C489.836 417.253 416.261 375.342 387.129 371.738C376.053 370.368 271.193 424.545 271.193 424.545L282.154 443.506C282.154 443.506 346.036 427.26 365.621 419.275C371.246 416.979 386.631 407.06 386.631 407.06L489.841 417.253H489.836Z" fill="#F36B80"/>
<path d="M538.81 326.788C538.81 326.788 474.946 373.88 468.722 374.69C464.033 375.303 417.033 360.92 417.033 360.92L425.859 378.493C425.859 378.493 464.412 400.195 478.195 399.609C494.372 398.926 532.317 366.878 532.317 366.878L538.81 326.788Z" fill="#EA94AD"/>
<path d="M486.848 365.251C486.848 365.251 501.806 386.799 502.167 392.576L533.575 368.86L538.809 326.783L486.852 365.251H486.848Z" fill="#E1DDE7"/>
<path d="M571.825 314.868C571.825 314.868 579.568 336.107 576.447 361.77C573.33 387.434 523.834 466.028 523.834 466.028C523.834 466.028 513.371 464.402 505.429 455.056C502.093 451.13 489.842 417.257 489.842 417.257C489.842 417.257 505.429 401.997 506.816 391.942C508.203 381.886 509.726 371.125 513.881 355.522C518.037 339.919 556.928 307.936 571.825 314.872V314.868Z" fill="#F2F2F2"/>
<path d="M571.737 434.931L432.646 426.532L422.007 441.382C420.466 513.041 420.149 540.757 420.083 551.086H406.573C405.829 539.537 404.298 510.727 401.291 438.884C401.313 438.897 422.72 417.601 428.134 413.56C558.553 414.08 572.401 414.133 572.436 414.133C578.419 414.181 583.094 419.235 582.737 425.166C582.389 430.904 577.464 435.275 571.737 434.927V434.931Z" fill="#5C407B"/>
<path d="M521.593 353.944L544.25 387.839C544.25 387.839 547.724 365.04 550.435 340.513C560.956 341.941 570.328 344.77 579.475 349.868C575.064 373.743 560.758 413.679 547.724 418.495C537.581 422.245 518.701 372.412 518.701 372.412L521.593 353.94V353.944Z" fill="#FFB3C5"/>
<path d="M550.258 332.128C551.821 324.593 553.639 317.032 561.778 314.643C566.823 313.163 572.479 314.577 576.512 317.886C581.305 321.821 582.644 328.131 582.622 334.102C582.573 347.661 578.391 360.889 574.24 374.073C565.093 368.975 556.72 370.557 546.2 369.129C545.218 357.064 548.224 341.955 550.258 332.133V332.128Z" fill="#E1DDE7"/>
<path d="M507.724 368.041H503.907L504.387 363.969H507.724C509.3 363.969 510.585 362.145 510.585 359.898V355.826C510.585 353.583 509.3 351.755 507.724 351.755H503.432V347.683H507.724C510.88 347.683 513.446 351.336 513.446 355.822V359.893C513.446 364.384 510.88 368.032 507.724 368.032V368.041Z" fill="#F36B80"/>
<path d="M481.438 347.075V366.481C481.438 370.94 485.047 374.554 489.502 374.554H496.413C500.868 374.554 504.478 370.94 504.478 366.481V344.612H481.442V347.075H481.438Z" fill="#F36B80"/>
<path d="M510.874 347.591C508.937 347.542 504.562 350.102 504.025 352.253C503.488 354.403 504.615 356.84 504.513 358.36C504.425 359.722 504.078 361.89 504.579 363.643C504.72 364.132 507.256 366.953 507.568 368.01C507.881 369.068 519.005 373.166 519.005 373.166L521.738 354.072C521.738 354.072 519.19 347.798 510.87 347.595L510.874 347.591Z" fill="#FFB3C5"/>
<path d="M401.322 328.29L433.381 400.609C434.028 402.068 435.732 402.724 437.185 402.076C438.642 401.429 439.298 399.723 438.651 398.269L406.591 325.95C405.944 324.492 404.24 323.835 402.787 324.483C401.33 325.13 400.674 326.836 401.322 328.29Z" fill="#5C407B"/>
<path d="M407.111 327.118L404.717 328.211L435.702 399.521L438.652 398.265L407.111 327.118Z" fill="#472A6A"/>
<path d="M411.664 360.105C411.664 360.105 411.399 353.332 414.041 355.095C416.682 356.858 416.286 360.92 416.946 361.731C417.606 362.542 419.191 363.899 419.587 366.609C419.983 369.319 421.832 371.214 422.096 372.976C422.36 374.739 422.228 376.228 422.228 376.228C422.228 376.228 413.644 375.144 413.38 371.487C413.116 367.83 411.664 360.11 411.664 360.11V360.105Z" fill="#EA94AD"/>
<path d="M804.418 443.282C804.608 444.912 803.445 446.388 801.817 446.578C800.188 446.767 798.713 445.604 798.524 443.973C798.335 442.343 799.501 440.867 801.126 440.677C802.754 440.488 804.229 441.656 804.418 443.282Z" fill="#F36B80"/>
<path d="M800.004 445.256C801.113 446.948 803.75 445.983 803.517 443.982C803.393 442.942 802.456 442.171 801.386 442.299C799.96 442.466 799.229 444.079 800.004 445.256Z" fill="#F36B80"/>
<path d="M819.295 447.763C818.239 449.014 818.397 450.892 819.647 451.949C820.898 453.007 822.773 452.848 823.829 451.597C824.886 450.345 824.727 448.468 823.477 447.41C822.227 446.353 820.352 446.511 819.295 447.763Z" fill="#F36B80"/>
<path d="M819.891 451.553C820.701 452.236 821.912 452.134 822.594 451.323C823.14 450.68 823.197 449.737 822.735 449.032C822.634 448.878 822.51 448.737 822.365 448.618C821.973 448.287 821.476 448.129 820.965 448.173C819.262 448.318 818.593 450.46 819.887 451.553H819.891Z" fill="#F36B80"/>
<path d="M805.91 443.193C805.906 444.832 807.231 446.167 808.868 446.172C810.506 446.176 811.84 444.85 811.844 443.211C811.848 441.572 810.523 440.236 808.886 440.232C807.248 440.228 805.915 441.554 805.91 443.193Z" fill="#F36B80"/>
<path d="M808.804 445.719C810.335 445.723 811.247 444.013 810.415 442.749C809.363 441.14 806.893 441.92 806.889 443.793C806.889 444.85 807.738 445.719 808.804 445.719Z" fill="#F36B80"/>
<path d="M792.725 448.31C793.772 449.57 795.648 449.742 796.907 448.689C798.166 447.64 798.337 445.763 797.285 444.502C796.238 443.242 794.362 443.07 793.103 444.123C791.844 445.172 791.673 447.049 792.725 448.31Z" fill="#F36B80"/>
<path d="M793.853 448.133C794.531 448.948 795.741 449.058 796.556 448.38C797.366 447.706 797.489 446.498 796.802 445.674C796.124 444.859 794.914 444.749 794.099 445.427C793.289 446.102 793.166 447.309 793.853 448.133Z" fill="#F36B80"/>
<path d="M815.172 482.597C814.437 481.129 815.026 479.345 816.492 478.609C817.958 477.873 819.741 478.463 820.476 479.931C821.211 481.398 820.621 483.183 819.156 483.919C817.69 484.654 815.907 484.064 815.172 482.597Z" fill="#F36B80"/>
<path d="M815.893 481.825C816.426 482.64 817.487 482.922 818.358 482.486C819.375 481.975 819.732 480.679 819.102 479.714C818.569 478.899 817.509 478.617 816.637 479.053C815.611 479.569 815.264 480.86 815.893 481.825Z" fill="#F36B80"/>
<path d="M825.118 472.532C823.613 471.88 822.917 470.135 823.569 468.628C824.22 467.121 825.963 466.425 827.469 467.077C828.974 467.729 829.67 469.474 829.018 470.981C828.367 472.488 826.624 473.18 825.118 472.532Z" fill="#F36B80"/>
<path d="M824.121 470.69C824.948 471.959 826.881 471.805 827.488 470.395C827.906 469.421 827.462 468.288 826.485 467.87C824.741 467.116 823.082 469.099 824.121 470.69Z" fill="#F36B80"/>
<path d="M826.278 458.427C824.706 458.898 823.051 458.004 822.585 456.431C822.114 454.858 823.007 453.201 824.579 452.734C826.15 452.262 827.805 453.157 828.272 454.73C828.743 456.303 827.85 457.96 826.278 458.427Z" fill="#F36B80"/>
<path d="M826.569 456.726C826.811 456.276 826.864 455.756 826.719 455.263C826.23 453.628 823.998 453.403 823.193 454.901C822.951 455.351 822.898 455.871 823.043 456.364C823.532 457.995 825.764 458.228 826.569 456.726Z" fill="#F36B80"/>
<path d="M824.447 473.872C823.03 473.048 821.212 473.528 820.389 474.947C819.566 476.366 820.045 478.186 821.463 479.01C822.88 479.834 824.698 479.353 825.521 477.934C826.345 476.515 825.865 474.696 824.447 473.872Z" fill="#F36B80"/>
<path d="M822.965 477.938C824.607 477.502 824.919 475.281 823.44 474.422C822.525 473.889 821.349 474.202 820.817 475.118C819.954 476.603 821.327 478.375 822.965 477.943V477.938Z" fill="#F36B80"/>
<path d="M818.102 446.873C817.2 448.243 815.36 448.622 813.991 447.723C812.622 446.82 812.243 444.978 813.141 443.608C814.044 442.237 815.884 441.858 817.253 442.757C818.622 443.66 819 445.502 818.102 446.873Z" fill="#F36B80"/>
<path d="M814.305 447.375C815.189 447.957 816.382 447.71 816.964 446.824C817.545 445.943 817.307 444.749 816.413 444.163C815.528 443.581 814.336 443.828 813.754 444.714C813.332 445.353 813.332 446.181 813.754 446.824C813.798 446.882 813.948 447.142 814.305 447.375Z" fill="#F36B80"/>
<path d="M826.617 459.881C825.001 460.158 823.918 461.696 824.196 463.313C824.473 464.93 826.009 466.014 827.625 465.737C829.24 465.459 830.323 463.921 830.046 462.304C829.769 460.687 828.232 459.603 826.617 459.881Z" fill="#F36B80"/>
<path d="M826.854 464.732C828.219 464.494 828.883 462.93 828.135 461.789C827.717 461.145 826.955 460.815 826.202 460.947C825.159 461.128 824.459 462.124 824.64 463.168C824.82 464.217 825.815 464.913 826.858 464.732H826.854Z" fill="#F36B80"/>
<path d="M796.781 448.741L796.314 449.05L815.925 479.009L816.396 478.701L807.676 465.309L820.49 474.85L820.825 474.4L807.469 464.459L823.396 469.302L823.558 468.764L808.275 464.115L824.219 463.177L824.188 462.617L807.575 463.595L822.885 457.061L822.665 456.545L807.971 462.82L819.579 451.839L819.196 451.433L807.099 462.873L814.631 448.018L814.129 447.763L806.901 462.022L808.746 446.141L808.191 446.075L806.272 462.626L802.495 446.401L801.949 446.529L805.572 462.102L796.785 448.75L796.781 448.741Z" fill="#F36B80"/>
<path d="M806.854 461.94L744.117 503.082L745.432 505.091L808.169 463.948L806.854 461.94Z" fill="#F36B80"/>
<path d="M774.214 367.34C775.83 369.596 775.315 372.738 773.061 374.359C770.807 375.977 767.669 375.461 766.049 373.205C764.433 370.949 764.948 367.807 767.202 366.185C769.456 364.568 772.595 365.084 774.214 367.34Z" fill="#F36B80"/>
<path d="M769.297 373.888C772.325 375.488 775.442 371.892 773.457 369.116C772.422 367.675 770.406 367.305 768.922 368.371C766.95 369.79 767.192 372.778 769.297 373.888Z" fill="#F36B80"/>
<path d="M799.922 361.766C799.38 364.489 801.15 367.137 803.875 367.679C806.595 368.217 809.241 366.45 809.778 363.722C810.315 360.999 808.55 358.351 805.825 357.813C803.104 357.276 800.459 359.042 799.922 361.77V361.766Z" fill="#F36B80"/>
<path d="M803.906 366.891C805.662 367.239 807.374 366.093 807.722 364.335C807.999 362.934 807.313 361.493 806.054 360.828C805.776 360.682 805.477 360.576 805.169 360.515C804.319 360.347 803.452 360.515 802.73 361.004C800.327 362.612 801.093 366.34 803.906 366.895V366.891Z" fill="#F36B80"/>
<path d="M776.358 365.987C777.697 368.42 780.752 369.31 783.181 367.97C785.611 366.631 786.501 363.577 785.167 361.14C783.829 358.708 780.774 357.818 778.344 359.157C775.914 360.497 775.025 363.555 776.358 365.987Z" fill="#F36B80"/>
<path d="M782.701 367.349C784.976 366.098 784.919 362.819 782.657 361.625C779.782 360.109 776.767 363.287 778.29 366.067C779.153 367.636 781.12 368.222 782.701 367.349Z" fill="#F36B80"/>
<path d="M761.016 384.384C763.605 385.389 766.514 384.107 767.518 381.516C768.522 378.925 767.241 376.012 764.652 375.007C762.064 374.003 759.154 375.285 758.15 377.876C757.147 380.467 758.428 383.38 761.016 384.384Z" fill="#F36B80"/>
<path d="M762.55 383.204C764.219 383.852 766.107 383.019 766.754 381.349C767.397 379.688 766.591 377.802 764.901 377.141C763.233 376.493 761.344 377.326 760.697 378.996C760.054 380.657 760.86 382.543 762.55 383.204Z" fill="#F36B80"/>
<path d="M822.353 416.733C820.064 415.164 819.474 412.035 821.041 409.744C822.608 407.453 825.734 406.862 828.023 408.431C830.312 410 830.902 413.128 829.335 415.42C827.768 417.711 824.642 418.301 822.353 416.733Z" fill="#F36B80"/>
<path d="M822.788 414.996C824.245 415.767 826.046 415.318 826.979 413.952C828.066 412.356 827.538 410.149 825.808 409.237C824.351 408.466 822.551 408.915 821.617 410.281C820.521 411.885 821.063 414.084 822.788 414.996Z" fill="#F36B80"/>
<path d="M828.835 393.664C826.075 393.937 823.614 391.919 823.341 389.152C823.068 386.389 825.084 383.926 827.849 383.653C830.609 383.379 833.07 385.398 833.342 388.165C833.615 390.928 831.599 393.391 828.835 393.664Z" fill="#F36B80"/>
<path d="M825.851 391.757C828.118 392.951 830.852 391.144 830.596 388.558C830.42 386.769 828.831 385.464 827.044 385.641C823.848 385.958 823.007 390.254 825.851 391.757Z" fill="#F36B80"/>
<path d="M818.99 371.822C817.049 373.809 813.871 373.844 811.885 371.901C809.9 369.958 809.865 366.776 811.806 364.789C813.748 362.802 816.926 362.767 818.911 364.71C820.896 366.653 820.932 369.835 818.99 371.822Z" fill="#F36B80"/>
<path d="M818.033 369.067C818.024 368.199 817.676 367.384 817.055 366.78C814.991 364.758 811.505 366.256 811.535 369.142C811.544 370.01 811.892 370.826 812.513 371.429C814.573 373.443 818.063 371.954 818.033 369.067Z" fill="#F36B80"/>
<path d="M828.934 396.199C826.161 396.141 823.863 398.345 823.806 401.121C823.749 403.897 825.95 406.197 828.723 406.254C831.496 406.311 833.794 404.108 833.851 401.332C833.908 398.556 831.707 396.256 828.934 396.199Z" fill="#F36B80"/>
<path d="M830.077 403.434C832.15 401.442 830.795 397.895 827.898 397.833C826.106 397.793 824.619 399.221 824.579 401.015C824.517 403.918 828.004 405.417 830.073 403.434H830.077Z" fill="#F36B80"/>
<path d="M797.422 361.422C797.211 364.194 794.799 366.265 792.03 366.054C789.261 365.842 787.192 363.427 787.404 360.656C787.615 357.884 790.027 355.813 792.796 356.024C795.565 356.236 797.634 358.651 797.422 361.422Z" fill="#F36B80"/>
<path d="M792.21 365.291C793.997 365.428 795.56 364.084 795.696 362.295C795.832 360.51 794.503 358.942 792.703 358.805C790.915 358.668 789.353 360.012 789.216 361.801C789.119 363.097 789.793 364.322 790.942 364.926C791.052 364.97 791.488 365.234 792.21 365.287V365.291Z" fill="#F36B80"/>
<path d="M820.692 373.699C818.531 375.44 818.183 378.603 819.922 380.771C821.661 382.935 824.821 383.283 826.987 381.543C829.148 379.802 829.496 376.638 827.757 374.47C826.019 372.302 822.858 371.958 820.692 373.699Z" fill="#F36B80"/>
<path d="M825.015 380.687C826.846 379.215 826.546 376.356 824.495 375.276C823.346 374.672 821.955 374.805 820.943 375.62C819.547 376.743 819.323 378.792 820.445 380.194C821.572 381.599 823.619 381.811 825.015 380.692V380.687Z" fill="#F36B80"/>
<path d="M767.378 381.701L766.938 382.543L820.523 410.806L820.968 409.968L797.078 397.295L823.873 400.9L824.001 399.957L796.079 396.198L823.626 390.298L823.428 389.368L796.99 395.03L819.832 380.551L819.326 379.749L795.524 394.837L812.837 372.588L812.089 372.007L795.471 393.356L803.668 367.565L802.765 367.278L794.226 394.154L793.204 365.974L792.258 366.009L793.235 393.056L782.952 368.023L782.076 368.384L792.79 394.466L773.906 373.54L773.202 374.175L791.325 394.259L767.378 381.701Z" fill="#F36B80"/>
<path d="M793.131 393.005L733.922 505.42L737.512 507.315L796.722 394.9L793.131 393.005Z" fill="#F36B80"/>
<path d="M740.473 508.603C740.473 508.603 699.354 478.049 693.719 464.882C688.085 451.715 699.702 453.2 699.702 453.2C699.702 453.2 683.097 429.652 687.504 421.87C691.91 414.088 701.08 424.025 701.08 424.025C701.08 424.025 693.376 392.166 700.076 390.395C712.551 387.094 722.786 421.381 722.786 421.381C722.786 421.381 721.866 407.148 729.675 409.065C741.45 411.956 735.221 442.603 735.221 442.603C735.221 442.603 738.976 437.17 745.43 442.338C757.016 451.614 740.469 508.603 740.469 508.603H740.473Z" fill="#8B5DD0"/>
<path d="M747.171 443.132C740.713 437.963 735.22 442.603 735.22 442.603C735.22 442.603 741.449 411.956 729.673 409.065C721.864 407.148 722.784 421.381 722.784 421.381C722.784 421.381 712.549 387.094 700.074 390.395L740.775 508.502C742.593 501.125 757.991 451.795 747.171 443.127V443.132Z" fill="#5C407B"/>
<path d="M740.417 507.541C740.417 507.541 698.282 507.497 689.583 500.187C680.885 492.877 691.555 492.308 691.555 492.308C691.555 492.308 671.416 481.609 671.711 474.471C672.006 467.337 678.833 468.773 678.833 468.773C678.833 468.773 664.914 456.294 667.771 450.239C672.164 440.942 692.07 458.576 692.07 458.576C692.07 458.576 690.547 451.504 696.723 450.028C706.033 447.798 715.48 474.299 715.48 474.299C715.48 474.299 711.025 462.362 717.426 463.688C728.902 466.068 740.422 507.541 740.422 507.541H740.417Z" fill="#31DAE7"/>
<path d="M742.168 509.89C742.168 509.89 779.567 477.943 784.132 465.071C788.697 452.2 777.732 454.32 777.732 454.32C777.732 454.32 792.104 430.908 787.438 423.769C782.772 416.631 774.65 426.647 774.65 426.647C774.65 426.647 780.047 395.868 773.567 394.59C761.497 392.206 753.838 425.448 753.838 425.448C753.838 425.448 753.851 411.85 746.535 414.146C735.508 417.614 743.29 446.392 743.29 446.392C743.29 446.392 739.219 435.632 733.39 440.941C722.931 450.468 742.164 509.885 742.164 509.885L742.168 509.89Z" fill="#5C407B"/>
<path d="M732.054 439.435C738.815 435.377 742.17 440.783 742.17 440.783C742.17 440.783 735.509 417.614 746.536 414.15C753.848 411.855 753.839 425.453 753.839 425.453C753.839 425.453 761.499 392.211 773.569 394.595L741.998 509.436C739.819 502.531 724.003 444.273 732.054 439.439V439.435Z" fill="#8B5DD0"/>
<path d="M745.932 505.303C745.932 505.303 787.015 505.316 792.729 504.655C798.443 503.99 792.131 498.882 792.131 498.882C792.131 498.882 804.914 499.35 806.864 496.234C808.814 493.123 803.593 491.894 803.593 491.894C803.593 491.894 816.324 488.201 815.717 485.491C814.585 480.441 800.525 483.733 800.525 483.733C800.525 483.733 805.746 481.195 803.624 478.837C800.424 475.277 786.751 484.954 786.751 484.954C786.751 484.954 791.884 475.237 788.856 474.003C783.423 471.796 745.936 505.303 745.936 505.303H745.932Z" fill="#31DAE7"/>
<path d="M775.594 551.593H707.218C698.511 543.631 693.202 532.663 693.396 520.633C693.493 514.557 694.743 509.26 697.349 504.06L785.508 505.052C787.946 510.335 789.254 516.138 789.152 522.215C788.968 533.676 783.826 544.005 775.594 551.593Z" fill="#F36B80"/>
<path d="M483.438 322.557C487.717 326.338 492.203 325.972 492.515 326.043C493.506 326.307 493.656 326.677 493.752 326.77C493.761 326.8 493.774 326.831 493.796 326.862C493.796 326.902 493.81 326.937 493.827 326.972C494.377 331.405 494.377 331.617 495.02 334.556C495.267 335.521 496.697 335.508 496.917 334.525C497.388 332.414 497.617 329.797 497.41 326.505C497.032 324.267 495.43 323.011 493.18 322.42C492.727 322.323 488.672 322.5 485.569 319.027C483.386 316.322 482.941 314.696 482.712 311.567C482.444 307.928 484.724 303.389 488.752 301.393L490.873 300.34C489.667 298.564 488.782 297.907 488.439 296.061C488.267 295.109 488.298 294.1 488.576 293.148C489.588 289.552 492.832 289.416 492.859 289.403C493.99 289.279 493.928 287.649 492.797 287.605C487.383 287.376 483.76 293.32 485.397 298.749C476.822 304.001 476.307 316.344 483.443 322.557H483.438ZM492.357 326.007C492.339 326.007 492.339 326.007 492.357 326.007V326.007Z" fill="#F2F2F2"/>
<path d="M732.728 369.821H687.317C683.289 369.821 680.027 366.296 680.027 361.951C680.027 357.602 683.294 354.081 687.317 354.081H732.728C729.259 358.443 729.123 364.846 732.402 369.376L732.728 369.821Z" fill="#F2F2F2"/>
<path d="M680.626 361.951C680.626 357.602 683.927 354.081 687.999 354.081H733.555C733.767 354.081 733.938 353.896 733.938 353.672C733.938 353.447 733.767 353.266 733.555 353.266H661.288C656.793 353.266 653.148 357.157 653.148 361.951C653.148 366.75 656.793 370.636 661.288 370.636H733.555C733.767 370.636 733.934 370.456 733.938 370.231C733.938 370.006 733.767 369.821 733.555 369.821H687.999C683.927 369.821 680.626 366.296 680.626 361.951Z" fill="#F36B80"/>
<path d="M342.888 37.8499C340.357 43.336 341.955 49.5139 346.542 51.7568C351.199 54.0305 357.168 51.3778 359.871 45.8345C362.574 40.2867 360.985 33.9502 356.328 31.6764C355.113 31.0816 353.81 30.8304 352.493 30.8745L360.664 15.487L380.662 34.1485L366.694 60.4596C366.677 60.4904 366.659 60.5213 366.646 60.5521C363.943 66.0999 365.532 72.4364 370.189 74.7102C374.847 76.9839 380.816 74.3312 383.519 68.7878C386.222 63.2401 384.632 56.9036 379.975 54.6298C378.765 54.0393 377.462 53.7882 376.15 53.8278L391.112 25.6484C391.596 24.7362 391.469 23.6566 390.813 23.0794L365.171 0.386012C364.313 -0.371903 362.939 0.0290873 362.305 1.21443L342.862 37.8367L342.888 37.8499Z" fill="#31DAE7"/>
<path d="M306.039 246.281C313.439 261.646 306.995 280.11 291.645 287.513C276.295 294.915 257.851 288.464 250.451 273.095C243.051 257.729 249.496 239.266 264.845 231.863C280.195 224.46 298.64 230.911 306.039 246.281Z" fill="#31DAE7"/>
<path d="M265.504 271.266C269.462 279.484 279.322 282.934 287.528 278.973C295.733 275.016 299.18 265.145 295.222 256.927L265.5 271.261L265.504 271.266Z" fill="#EFEFEF"/>
<path d="M235.081 159.09L225.432 160.998C225.432 160.998 211.328 154.401 210.254 151.224C209.18 148.047 209.673 140.719 207.608 140.261C205.544 139.803 201.415 139.979 199.834 144.839C198.685 148.364 202.678 159.469 201.714 160.478C201.111 161.108 195.595 162.364 191.554 163.214C188.895 163.774 186.778 165.792 186.047 168.454V168.462C185.554 170.26 186.369 172.173 187.997 173.049L190.537 174.411L189.344 177.064C188.455 179.038 189.305 181.382 191.246 182.312L193.222 183.259L192.355 184.854C191.237 186.912 192.131 189.512 194.27 190.433L196.009 191.182L195.872 191.654C195.313 193.623 196.33 195.708 198.214 196.461L199.944 197.153L225.643 192.068C228.051 191.592 230.336 190.618 232.352 189.208L241.09 185.899C242.027 185.542 242.565 184.542 242.353 183.541L237.471 160.689C237.238 159.583 236.173 158.874 235.09 159.085L235.081 159.09Z" fill="#F36B80"/>
<path d="M35.1185 109.746L45.3135 117.294L58.6207 107.679L74.8157 117.493L86.6263 111.927L91.5345 117.585L75.7357 125.028L60.3903 115.726L46.5461 125.733L31.2051 114.368L35.1185 109.746Z" fill="#F2F2F2"/>
<path d="M280.812 153.229L283.392 153.961C284.426 154.256 285.518 153.714 285.914 152.714L286.011 152.467C286.892 150.237 289.313 149.039 291.619 149.691L306.837 154.009C309.139 154.662 310.574 156.957 310.156 159.319L310.112 159.579C309.923 160.641 310.57 161.672 311.604 161.968L319.854 164.307C325.876 166.017 329.371 172.287 327.667 178.316L323.648 192.504C321.94 198.532 315.676 202.031 309.654 200.326L270.622 189.244C264.6 187.534 261.105 181.263 262.808 175.235L266.827 161.047C268.535 155.018 274.799 151.52 280.821 153.229H280.812Z" fill="#E4C4FF"/>
<path d="M290.652 176.306C288.826 182.757 292.567 189.468 299.012 191.297C305.456 193.125 312.161 189.38 313.987 182.929C315.814 176.478 312.073 169.767 305.628 167.938C299.184 166.109 292.479 169.855 290.652 176.306Z" fill="#8B5DD0"/>
<path d="M293.487 177.112C292.105 181.995 294.935 187.075 299.813 188.459C304.69 189.843 309.766 187.009 311.148 182.127C312.53 177.244 309.7 172.164 304.822 170.78C299.945 169.397 294.869 172.23 293.487 177.112Z" fill="#E4C4FF"/>
<path d="M139.725 103.859L147.746 105.247L149.912 113.267L159.015 114.188L158.694 123.441L168.937 124.939L169.69 133.497L179.313 136.55L180.466 132.902L173.273 130.624L172.476 121.59L162.629 120.154L162.955 110.742L152.914 109.728L150.796 101.893L143.362 100.607L143.045 95.1736L139.232 95.3939L139.725 103.859Z" fill="#31DAE7"/>
<path d="M449.576 142.068L395.444 134.339C390.149 133.581 385.245 137.264 384.492 142.565L380.046 173.768C379.289 179.069 382.969 183.978 388.265 184.731L442.396 192.464C447.692 193.222 452.595 189.539 453.348 184.238L457.794 153.035C458.547 147.734 454.871 142.825 449.576 142.072V142.068Z" fill="#F36B80"/>
<path d="M432.714 164.228C433.308 164.695 433.612 165.444 433.502 166.198C433.396 166.947 432.894 167.586 432.194 167.868L410.624 176.54C409.92 176.822 409.123 176.707 408.529 176.24C407.935 175.773 407.631 175.024 407.741 174.27L411.025 151.238C411.131 150.489 411.632 149.85 412.332 149.568C413.037 149.286 413.833 149.4 414.432 149.867L432.718 164.228H432.714Z" fill="white"/>
<path d="M367.307 253.063L371.361 244.937L359.026 236.966L363.49 224.359L355.236 216.881L359.018 212.695L370.062 222.698L365.828 234.644L378.659 242.941L372.558 255.16L367.307 253.063Z" fill="#F2F2F2"/>
<path d="M340.904 277.893L355.404 274.963L359.018 288.279L373.426 286.019L378.449 298.321L389.506 298.396L389.471 304.001L374.676 303.9L369.918 292.245L354.929 294.589L351.376 281.493L338.236 284.15L340.904 277.893Z" fill="#E4C4FF"/>
<path d="M200.854 47.8702C201.484 43.9485 206.392 41.4544 211.745 42.6001C235.19 47.6059 257.605 56.6347 277.99 69.2902C282.648 72.1764 284.4 77.4157 282.053 80.7206C263.525 107.353 270.67 97.6106 258.987 111.844C256.236 115.14 251.464 115.805 247.85 113.562C244.029 111.178 242.532 106.194 244.65 102.185C245.834 99.9901 247.018 97.8001 248.202 95.6057C249.575 93.1028 248.369 89.7979 245.451 88.3394C237.778 84.5057 229.837 81.2405 221.689 78.5658C218.59 77.5479 215.42 79.0285 214.65 81.7517C213.963 84.1224 213.277 86.4931 212.59 88.8637C211.296 93.1689 206.762 95.5836 202.377 94.5305C198.244 93.5258 195.299 89.7098 195.633 85.506C196.016 81.126 199.459 56.031 200.845 47.8702H200.854Z" fill="#E4C4FF"/>
<path d="M265.407 72.3748C264.35 71.943 263.245 71.8284 262.193 71.9826L264.029 67.4924L269.809 69.8587L267.973 74.3489C267.33 73.4985 266.463 72.8067 265.407 72.3748Z" fill="#8B5DD0"/>
<path d="M268.761 80.3769C269.193 79.3193 269.307 78.2133 269.153 77.1602L273.639 78.9977L271.275 84.7834L266.789 82.9459C267.639 82.3025 268.33 81.4344 268.761 80.3769Z" fill="#8B5DD0"/>
<path d="M260.765 83.7348C261.822 84.1667 262.927 84.2812 263.979 84.127L262.143 88.6172L256.363 86.2509L258.199 81.7607C258.842 82.6112 259.709 83.303 260.765 83.7348Z" fill="#8B5DD0"/>
<path d="M259.383 73.1637C258.533 73.807 257.842 74.6751 257.411 75.7327C256.979 76.7902 256.865 77.8962 257.019 78.9494L252.533 77.1119L254.897 71.3262L259.383 73.1637Z" fill="#8B5DD0"/>
<path d="M259.626 76.6359C258.842 78.5484 259.758 80.734 261.673 81.5183C263.583 82.3027 265.767 81.3861 266.55 79.4693C267.334 77.5569 266.418 75.3713 264.503 74.5869C262.593 73.8026 260.41 74.7191 259.626 76.6359Z" fill="#8B5DD0"/>
<path d="M207.928 55.9956C206.255 60.0893 208.214 64.7645 212.303 66.439C216.393 68.1135 221.063 66.1526 222.74 62.059C224.413 57.9653 222.454 53.2901 218.365 51.6156C214.275 49.9411 209.605 51.902 207.928 55.9956Z" fill="#8B5DD0"/>
<path d="M487.779 61.063C497.059 74.9038 484.676 93.2436 468.296 89.8858C465.356 89.2821 462.292 89.8285 459.673 91.3003L450.657 96.3589C448.175 97.7514 445.036 97.0023 443.447 94.636L439.934 89.3923C438.349 87.026 438.842 83.8357 441.074 82.0643C449.213 75.5956 452.682 73.8022 453.748 68.1795C456.855 51.7345 478.5 47.2179 487.779 61.063Z" fill="#F2F2F2"/>
<path d="M450.317 90.4944C450.317 90.4944 450.321 90.5032 450.325 90.5076C450.801 91.1994 451.743 91.3713 452.434 90.8998L470.693 78.3413L477.411 79.1609C478.243 79.2623 478.996 78.6718 479.097 77.839C479.198 77.0061 478.608 76.2526 477.776 76.1513L469.919 75.1907L450.713 88.4013C450.026 88.8728 449.85 89.807 450.312 90.4944H450.317Z" fill="#31DAE7"/>
<path d="M445.323 84.704C445.323 84.704 445.319 84.6951 445.314 84.6907C444.857 83.9901 445.05 83.0515 445.75 82.5888L464.283 70.4358L466.07 63.901C466.29 63.0946 467.126 62.6187 467.932 62.839C468.737 63.0593 469.213 63.8965 468.993 64.7029L466.902 72.3438L447.41 85.1226C446.714 85.5764 445.785 85.387 445.323 84.6996V84.704Z" fill="#31DAE7"/>
<path d="M459.902 91.1813C459.827 91.221 459.747 91.2562 459.673 91.3003L450.657 96.3589C448.175 97.7514 445.036 97.0023 443.447 94.636L439.934 89.3923C438.349 87.026 438.842 83.8357 441.074 82.0643C444.697 79.1869 447.391 77.2348 449.363 75.459L459.902 91.1813Z" fill="#31DAE7"/>
<path d="M450.267 40.3751C449.131 38.1102 448.889 38.3349 449.074 35.7748C449.188 34.1752 451.402 33.1837 452.723 33.9505C455.192 35.3914 456.297 38.4495 457.583 40.9083C458.864 43.3627 460.145 45.8127 461.426 48.2671C462.209 49.7697 462.086 51.6028 460.567 52.6207C459.273 53.4888 457.015 53.2685 456.218 51.7615C451.481 42.8031 451.917 43.6579 450.267 40.3707V40.3751Z" fill="#F2F2F2"/>
<path d="M471.721 103.837C471.809 105.899 471.387 107.997 471.127 110.041C470.858 112.139 470.735 114.117 469.727 116.012C468.741 117.867 465.365 118.101 464.823 115.695C464.55 114.483 464.379 113.421 464.533 112.183C464.647 111.236 464.797 110.293 464.929 109.35C465.202 107.402 465.303 105.327 465.897 103.449C467.086 99.695 471.598 100.898 471.721 103.837Z" fill="#F2F2F2"/>
<path d="M494.841 111.068C493.662 108.623 492.09 106.34 490.378 104.238C489.55 103.225 488.432 102.352 487.723 101.264C486.94 100.061 485.896 98.8401 485.808 97.3331C485.742 96.2624 486.557 95.4868 487.565 95.3414C489.207 95.1079 490.651 96.2007 491.98 96.9674C493.402 97.7914 494.573 99.4835 495.59 100.739C497.654 103.291 499.257 106.159 500.599 109.147C501.273 110.641 500.124 112.505 498.68 112.985C496.963 113.558 495.559 112.549 494.846 111.064L494.841 111.068Z" fill="#F2F2F2"/>
<path d="M517.423 82.8446C514.483 81.928 511.582 80.8969 508.756 79.6675C503.029 77.1778 501.585 76.2525 501.259 73.9391C501.083 72.7009 502.047 71.7314 503.06 71.2687C504.609 70.5593 506.084 71.4009 507.457 72.1016C508.707 72.7405 509.98 73.3442 511.265 73.9126C513.668 74.9746 516.125 75.922 518.63 76.7108C520.236 77.2175 521.438 78.5967 521.09 80.3814C520.791 81.9016 519.043 83.3469 517.423 82.8446Z" fill="#F2F2F2"/>
<path d="M441.252 68.4748C438.039 67.523 434.821 66.6153 431.673 65.4652C430.714 65.1126 429.992 63.9185 429.97 62.927C429.921 60.7546 431.788 59.3446 433.575 59.7676C436.577 60.477 439.509 61.4244 442.463 62.3233C444.082 62.8169 445.28 64.2269 444.932 66.0072C444.628 67.5494 442.885 68.9595 441.252 68.4792V68.4748Z" fill="#F2F2F2"/>
<path d="M516.053 49.0025C513.517 50.4258 510.959 51.8139 508.406 53.1931C505.831 54.5856 503.067 56.5288 500.034 56.3966C498.577 56.3305 496.988 54.8103 497.934 53.2636C499.704 50.373 501.658 49.7472 504.942 48.0331C507.526 46.6847 510.11 45.3364 512.716 44.0276C514.16 43.3006 515.89 43.3799 516.871 44.8472C517.717 46.1119 517.47 48.2094 516.053 49.007V49.0025Z" fill="#F2F2F2"/>
<path d="M492.654 22.4184C492.403 25.3179 492.104 28.213 491.809 31.1036C491.51 34.0163 491.558 37.3961 489.74 39.8329C488.868 41.0006 486.716 41.4544 485.972 39.8064C484.581 36.7131 485.166 34.7434 485.602 31.0595C485.941 28.1645 486.284 25.265 486.672 22.3744C486.887 20.7704 487.926 19.3868 489.687 19.4C491.206 19.4132 492.799 20.7969 492.659 22.4184H492.654Z" fill="#F2F2F2"/>
<path d="M417.911 273.174C420.671 272.46 423.017 270.323 423.154 268.401C423.29 266.48 421.344 265.59 418.804 266.414C416.264 267.238 413.918 269.371 413.562 271.186C413.205 273.002 415.155 273.892 417.911 273.174Z" fill="#31DAE7"/>
<path d="M421.176 248.449L431.868 244.43L441.236 250.97C442.301 251.714 443.758 250.912 443.701 249.612L443.186 238.191L452.294 231.295C453.333 230.51 453.02 228.875 451.765 228.527L440.756 225.487L437.014 214.687C436.587 213.457 434.937 213.25 434.223 214.334L427.933 223.874L416.514 224.099C415.216 224.125 414.507 225.632 415.317 226.65L422.439 235.586L419.12 246.523C418.742 247.77 419.957 248.907 421.172 248.449H421.176Z" fill="#F2F2F2"/>
<path d="M314.636 82.651L321.569 76.5701L330.505 78.8438C331.522 79.1038 332.393 78.0815 331.98 77.1165L328.348 68.634L333.269 60.8301C333.828 59.94 333.129 58.7943 332.085 58.8913L322.903 59.7285L317.008 52.6341C316.339 51.8277 315.032 52.1406 314.799 53.1629L312.756 62.1609L304.194 65.5803C303.221 65.9681 303.111 67.3077 304.014 67.8497L311.933 72.5734L312.536 81.783C312.606 82.8317 313.843 83.3473 314.636 82.6555V82.651Z" fill="#F36B80"/>
<path d="M313.519 129.201L320.932 122.274L330.519 126.147L338.28 117.792L347.221 125.076L356.412 116.012L365.471 121.701L375.741 114.43L372.99 110.539L365.313 115.977L355.752 109.975L346.917 118.687L337.827 111.28L329.265 120.502L319.902 116.717L313.03 123.138L307.4 119.366L304.75 123.323L313.519 129.201Z" fill="#31DAE7"/>
<path d="M413.262 334.146C430.958 334.428 444.806 329.713 457.797 318.534C456.265 317.904 450.85 316.185 449.948 316.005C461.838 303.799 465.161 291.443 464.704 276.65C458.004 280.837 450.921 282.952 444.265 283.287C445.418 293.391 443.349 304.446 434.435 314.74C431.689 313.185 431.306 312.695 428.977 310.792C426.912 318.887 419.451 326.84 413.262 334.146Z" fill="#31DAE7"/>
<path d="M80.375 90.1945L105.392 74.9393L86.2164 38.6475L84.8958 54.6033L72.2445 47.1696L72.7287 60.8209L57.084 56.41L80.375 90.1945Z" fill="#31DAE7"/>
<path d="M105.816 145.972C105.816 145.972 98.4908 145.337 94.0888 151.4C90.1666 156.807 92.6933 164.338 98.7857 168.771C105.838 173.9 117.868 174.887 134.693 166.973C137.013 148.51 132.355 137.361 125.299 132.232C119.207 127.804 111.27 127.724 107.343 133.131C102.941 139.199 105.811 145.972 105.811 145.972H105.816Z" fill="#F36B80"/>
<path d="M166.697 78.3677C166.697 80.7604 169.118 82.7037 172.112 82.7037C175.105 82.7037 177.526 80.7648 177.526 78.3677C177.526 75.9706 175.101 74.0317 172.112 74.0317C169.123 74.0317 166.697 75.9706 166.697 78.3677Z" fill="#F2F2F2"/>
<path d="M350.564 146.875L355.208 141.993L353.249 140.124L350.674 142.825L347.183 138.719L345.123 140.472L350.564 146.875Z" fill="#F2F2F2"/>
<path d="M35.2305 82.6466L41.2348 85.7003L42.4586 83.2855L39.135 81.5934L42.0668 77.068L39.7953 75.5918L35.2305 82.6466Z" fill="#31DAE7"/>
</svg>
