<svg width="52" height="178" viewBox="0 0 52 178" fill="none" xmlns="http://www.w3.org/2000/svg">
<path d="M21.8793 152.337L22.8281 161.51L17.4513 160.877L16.8187 153.286L21.8793 152.337Z" fill="#FFB9B9"/>
<path d="M36.113 82.7521C36.113 82.7521 63.6308 109.321 46.2345 117.545H40.8576C40.8576 117.545 29.1548 98.2492 23.4613 98.5671L21.88 116.912L22.8288 153.919L15.8703 154.235C15.8703 154.235 11.7585 135.574 12.0747 125.136L4.79993 86.5476L36.113 82.7521Z" fill="#2F2E41"/>
<path d="M44.6543 116.279L40.8588 117.545C40.8588 117.545 25.9929 114.065 25.0454 114.382L22.1022 114.361L22.198 106.79H34.8487L44.6543 116.279Z" fill="#2F2E41"/>
<path d="M16.8191 159.612C16.8191 159.612 22.5126 157.082 23.4614 159.612C24.4102 162.142 24.0939 169.417 24.0939 169.417C23.3351 170.876 23.1113 172.555 23.4614 174.162C24.0939 176.692 20.9309 177.957 16.8191 176.692C12.7073 175.427 12.7073 172.264 12.7073 172.264L16.8191 159.612Z" fill="#2F2E41"/>
<path d="M12.0758 106.156C12.0758 106.156 7.64774 103.626 7.964 107.421C8.22646 109.928 8.86632 112.381 9.86192 114.696C9.86192 114.696 5.75012 125.45 9.86192 126.399C13.9737 127.348 17.1367 125.134 17.1367 123.552C17.1367 121.971 12.0758 106.156 12.0758 106.156Z" fill="#2F2E41"/>
<path d="M25.9922 19.493L25.3593 31.5124L19.9825 36.2561L13.9727 27.7162V19.1767L25.9922 19.493Z" fill="#FFB9B9"/>
<path d="M21.8796 31.5121L25.5004 28.8216L27.889 32.4609L38.6431 38.7862L32.3177 55.2334L32.0015 71.3647C32.0015 71.3647 43.7043 83.3838 36.7458 84.9655C29.7873 86.5471 5.11615 90.0261 3.85108 87.1797C2.58601 84.3332 5.43241 54.9175 5.43241 54.9175L4.4836 29.9301L13.9716 26.4994L21.8796 31.5121Z" fill="#673BB7"/>
<path d="M41.1736 51.5446C41.1736 51.5446 43.704 69.4664 38.9594 69.4664C36.1417 69.476 33.3489 68.939 30.7358 67.8851L34.5313 58.0798L32.95 51.4376L41.1736 51.5446Z" fill="#FFB9B9"/>
<path d="M33.8995 67.2537L30.4202 67.8863C30.4202 67.8863 20.2987 61.5609 19.6662 61.244C19.0336 60.9271 29.7877 55.5505 29.7877 55.5505L37.0625 58.3973L33.8995 67.2537Z" fill="#FFB9B9"/>
<path opacity="0.1" d="M29.7873 55.5504L34.3556 57.3378L32.95 51.4386L41.1736 51.5444C41.1736 51.5444 43.704 69.4662 38.9594 69.4662C36.1417 69.4758 33.3489 68.9388 30.7358 67.8849L30.7597 67.8229L30.4195 67.8849C30.4195 67.8849 20.298 61.5595 19.6655 61.2426C19.0329 60.9257 29.7873 55.5504 29.7873 55.5504Z" fill="black"/>
<path d="M18.6752 25.4904C13.687 25.4904 9.64336 21.4467 9.64336 16.4585C9.64336 11.4704 13.687 7.4267 18.6752 7.4267C23.6633 7.4267 27.707 11.4704 27.707 16.4585C27.707 21.4467 23.6633 25.4904 18.6752 25.4904Z" fill="#FFB9B9"/>
<path d="M26.661 6.26916L28.4257 5.56283C28.4257 5.56283 24.7359 1.50055 19.6025 1.85388L21.0464 0.264233C21.0464 0.264233 17.517 -1.14875 14.3087 2.56021C12.6219 4.50893 10.6706 6.80171 9.45284 9.38328H7.5629L8.35165 11.1199L5.59182 12.8574L8.42545 12.5453C8.15705 14.0447 8.24892 15.5864 8.69348 17.0434L8.61744 18.417C8.61744 18.417 11.9018 13.3354 11.9018 12.629V14.3953C11.9018 14.3953 13.6665 12.8057 13.6665 11.746L14.6291 12.9823L15.1118 11.0365L21.0474 12.9792L20.0849 11.3895L23.7747 11.9195L22.3307 9.97684C22.3307 9.97684 26.5016 12.2728 26.6623 14.2158C26.823 16.1588 28.9081 18.6311 28.9081 18.6311L29.8706 16.8648C29.8706 16.8648 31.3133 8.91847 26.661 6.26916Z" fill="#2F2E41"/>
<path d="M10.8109 46.0618C12.4072 48.0339 13.298 50.4834 13.3414 53.0203L30.1051 52.3878C30.1051 52.3878 34.5332 51.7552 34.5332 54.9182V58.0809C34.5332 58.0809 32.319 57.1321 31.0539 58.0809C29.7889 59.0297 16.1881 67.2536 9.54582 64.0906C2.90356 60.9276 1.32222 48.5922 1.32222 48.5922C1.32222 48.5922 7.33163 43.5313 10.8109 46.0618Z" fill="#FFB9B9"/>
<path d="M7.01376 30.2467L4.4833 29.9304C4.4833 29.9304 -0.5773 30.563 0.0552349 40.3682C0.68777 50.1735 1.00404 50.806 1.00404 50.806C1.00404 50.806 7.64629 44.7963 12.3906 47.6433L7.01376 30.2467Z" fill="#673BB7"/>
<path d="M37.3788 38.7878H38.6439C40.283 40.8582 41.1747 43.4217 41.1743 46.0625C41.2033 48.8909 41.575 51.7053 42.2812 54.4443L32.3179 52.7048L37.3788 38.7878Z" fill="#673BB7"/>
</svg>
