<svg width="500" height="500" viewBox="0 0 500 500" fill="none" xmlns="http://www.w3.org/2000/svg">
<rect x="328" y="321" width="172" height="116" rx="10" fill="#14CEBE"/>
<path d="M461.931 437C461.931 437.15 364.511 437.26 244.381 437.26C124.251 437.26 26.8105 437.19 26.8105 437C26.8105 436.81 124.201 436.74 244.381 436.74C364.561 436.74 461.931 436.9 461.931 437Z" fill="#263238"/>
<path d="M339.7 264C340.443 267.02 340.356 270.184 339.45 273.158C338.543 276.133 336.851 278.808 334.55 280.9C331.5 283.6 327.55 285.16 324.75 288.13C323.017 290.105 321.825 292.495 321.291 295.068C320.756 297.641 320.897 300.308 321.7 302.81C322.55 305.294 323.895 307.579 325.653 309.528C327.411 311.478 329.547 313.05 331.93 314.15C335.176 315.666 338.734 316.393 342.314 316.272C345.894 316.15 349.395 315.183 352.53 313.45C360.26 309.08 364.76 300.31 365.9 291.5C367.04 282.69 365.25 273.77 362.9 265.2" fill="#263238"/>
<path d="M437.189 419.35C445.189 418.04 452.689 420.48 460.609 422.23C462.715 422.854 464.939 422.974 467.099 422.58C470.529 421.7 472.969 418.36 473.499 414.86C473.928 411.794 473.217 408.677 471.499 406.1C470.811 404.99 469.872 404.055 468.759 403.37C467.567 402.772 466.262 402.432 464.929 402.37C460.076 401.979 455.207 402.898 450.829 405.03C446.464 407.152 442.505 410.022 439.129 413.51C437.449 415.19 437.949 417.12 437.209 419.38" fill="#263238"/>
<path d="M275.001 290.23C273.718 282.602 273.874 274.801 275.461 267.23C276.132 263.528 277.488 259.984 279.461 256.78C280.133 255.585 281.156 254.625 282.391 254.03C283.288 253.732 284.25 253.689 285.17 253.906C286.09 254.124 286.932 254.592 287.601 255.26C288.456 256.149 289.111 257.21 289.525 258.372C289.939 259.534 290.101 260.771 290.001 262C289.823 264.458 289.221 266.867 288.221 269.12C285.131 277.02 280.221 283.58 274.971 290.22" fill="#263238"/>
<path d="M429.999 319.14C431.809 320.43 471.999 407 471.999 407C468.767 405.619 465.188 405.27 461.749 406L459.569 406.58C455.668 407.629 451.967 409.319 448.619 411.58L437.149 419.34C436.695 419.079 436.311 418.713 436.027 418.273C435.744 417.833 435.569 417.331 435.519 416.81V416.48L404.359 363L429.999 319.14Z" fill="#673BB7"/>
<path d="M279.091 181.32L289.811 242.25C293.261 250.45 333.491 300.13 333.491 300.13L320.191 342.87L267.351 270.62C262.445 265.374 259.776 258.422 259.911 251.24L261.971 186.14L279.091 181.32Z" fill="#FFBE9D"/>
<path d="M336.141 290.58L363.731 292.67L387.791 296.4C387.791 296.4 430.001 307.49 430.001 312.11C430.001 313.65 418.481 350.34 412.001 372.32C410.413 377.659 409.117 383.08 408.121 388.56L430.001 437H326.171V392.59C326.171 392.59 319.171 334.26 320.401 326.29C321.631 318.32 336.141 290.58 336.141 290.58Z" fill="#673BB7"/>
<path d="M266 156.7C266.162 150.494 266.797 144.309 267.9 138.2C268.05 137.33 268.41 136.28 269.28 136.2C270.36 136.06 270.91 137.45 271.05 138.53C272.009 145.898 271.701 153.376 270.14 160.64" fill="#EB996E"/>
<path d="M278.3 285.72C290.14 275.14 290.54 256.81 289.53 242.22C289.333 241.155 289.495 240.054 289.99 239.09C291.12 237.48 293.87 238.09 294.99 239.71C296.11 241.33 295.99 243.46 295.93 245.42C296.54 243.76 299.14 243.77 300.36 245.05C301.58 246.33 301.79 248.26 301.93 250.05L302.32 254.93L336.91 287.93C336.91 287.93 337.86 284.93 340.4 286.66C342.94 288.39 344.58 292.04 344.58 292.04L320.21 345.23L274.98 290.23C275.85 288.566 276.97 287.045 278.3 285.72Z" fill="#673BB7"/>
<path d="M325.24 322.53C321.631 327.133 318.936 332.384 317.3 338C315.669 343.653 315.848 349.674 317.81 355.22C319.328 359.057 321.814 362.436 325.027 365.026C328.239 367.617 332.068 369.33 336.14 370" fill="#673BB7"/>
<path d="M437.191 419.35L435.881 437H461.511L467.511 405.75C459.704 405.314 452.003 407.727 445.841 412.54L437.191 419.35Z" fill="#FFBE9D"/>
<path d="M290.35 281.81C290.494 281.324 290.682 280.853 290.91 280.4C291.31 279.52 291.85 278.22 292.46 276.6C293.07 274.98 293.72 273.02 294.33 270.82C294.964 268.419 295.468 265.985 295.84 263.53C296.185 261.073 296.395 258.6 296.47 256.12C296.47 253.83 296.47 251.77 296.33 250.04C296.19 248.31 296.06 246.92 295.93 245.96C295.843 245.461 295.797 244.956 295.79 244.45C295.952 244.931 296.066 245.426 296.13 245.93C296.389 247.279 296.579 248.641 296.7 250.01C296.895 252.044 296.978 254.087 296.95 256.13C296.874 261.139 296.148 266.118 294.79 270.94C294.231 272.906 293.563 274.839 292.79 276.73C292.13 278.35 291.54 279.63 291.08 280.49C290.87 280.948 290.626 281.389 290.35 281.81Z" fill="#263238"/>
<path d="M297.881 272.52C298.207 271.66 298.581 270.818 299.001 270C300.752 265.941 301.767 261.604 302.001 257.19C301.999 256.271 302.049 255.353 302.151 254.44C302.347 255.346 302.421 256.274 302.371 257.2C302.336 261.685 301.312 266.107 299.371 270.15C298.989 271.007 298.487 271.804 297.881 272.52Z" fill="#263238"/>
<path d="M338.501 300.18C338.421 300.13 338.841 299.48 339.081 298.3C339.361 296.758 339.272 295.171 338.821 293.67C338.345 292.159 337.767 290.682 337.091 289.25C336.775 288.657 336.539 288.025 336.391 287.37C336.787 287.905 337.122 288.482 337.391 289.09C338.182 290.499 338.822 291.987 339.301 293.53C339.779 295.11 339.817 296.79 339.411 298.39C339.285 299.062 338.969 299.683 338.501 300.18Z" fill="#263238"/>
<path d="M332.49 370.62C332.334 370.555 332.186 370.471 332.05 370.37L330.87 369.59C329.87 368.9 328.38 367.89 326.64 366.52C324.583 364.936 322.702 363.136 321.03 361.15C318.972 358.692 317.489 355.805 316.69 352.7C315.927 349.594 315.73 346.376 316.11 343.2C316.417 340.624 316.99 338.087 317.82 335.63C318.37 333.974 319.008 332.349 319.73 330.76C319.99 330.2 320.19 329.76 320.34 329.48C320.406 329.324 320.49 329.177 320.59 329.04C320.401 329.652 320.177 330.253 319.92 330.84C319.47 331.98 318.82 333.64 318.17 335.74C317.402 338.186 316.873 340.702 316.59 343.25C316.242 346.368 316.445 349.523 317.19 352.57C317.968 355.606 319.406 358.433 321.4 360.85C323.037 362.823 324.87 364.626 326.87 366.23C328.57 367.63 330 368.68 330.99 369.43L332.11 370.29C332.37 370.49 332.5 370.6 332.49 370.62Z" fill="#263238"/>
<path d="M389.141 380.51C389.002 380.583 388.854 380.637 388.701 380.67C388.401 380.75 387.971 380.9 387.401 381.01C385.789 381.359 384.149 381.557 382.501 381.6C377.005 381.769 371.585 380.288 366.939 377.349C362.293 374.41 358.633 370.148 356.431 365.11C355.759 363.604 355.234 362.037 354.861 360.43C354.721 359.86 354.671 359.43 354.611 359.11C354.576 358.956 354.559 358.798 354.561 358.64C354.765 359.205 354.932 359.783 355.061 360.37C356.652 366.408 360.216 371.74 365.186 375.52C370.156 379.299 376.247 381.309 382.491 381.23C384.123 381.222 385.751 381.082 387.361 380.81C387.948 380.679 388.542 380.579 389.141 380.51Z" fill="#263238"/>
<path d="M405.051 400C404.911 400 406.231 394.43 408.051 387.65C409.871 380.87 411.371 375.4 411.501 375.44C411.631 375.48 410.321 381 408.551 387.78C406.781 394.56 405.191 400 405.051 400Z" fill="#263238"/>
<path d="M419 388.21C418.88 388.28 414.86 381.71 410 373.53C405.14 365.35 401.34 358.66 401.47 358.59C401.6 358.52 405.61 365.08 410.47 373.26C415.33 381.44 419.17 388.13 419 388.21Z" fill="#263238"/>
<path d="M457.39 404.4C457.39 404.5 455.93 404.62 453.65 405.2C452.318 405.538 451.012 405.969 449.74 406.49C448.189 407.146 446.691 407.922 445.26 408.81C443.848 409.719 442.51 410.739 441.26 411.86C440.241 412.792 439.288 413.794 438.41 414.86C436.91 416.67 436.17 417.94 436.08 417.86C436.2 417.536 436.358 417.227 436.55 416.94C437.013 416.121 437.538 415.339 438.12 414.6C438.974 413.495 439.914 412.459 440.93 411.5C442.188 410.335 443.546 409.284 444.99 408.36C446.446 407.455 447.979 406.679 449.57 406.04C450.868 405.528 452.206 405.123 453.57 404.83C454.484 404.618 455.414 404.478 456.35 404.41C456.694 404.357 457.045 404.353 457.39 404.4Z" fill="#263238"/>
<path d="M462.29 398.38C462.29 398.49 460.68 398.29 458.11 398.51C456.611 398.645 455.126 398.906 453.67 399.29C450.102 400.238 446.766 401.909 443.87 404.2C442.693 405.137 441.596 406.171 440.59 407.29C438.88 409.21 438.08 410.61 437.99 410.56C438.125 410.206 438.303 409.87 438.52 409.56C438.735 409.174 438.975 408.803 439.24 408.45C439.573 407.966 439.93 407.499 440.31 407.05C441.293 405.876 442.385 404.798 443.57 403.83C445.037 402.654 446.618 401.629 448.29 400.77C449.973 399.946 451.736 399.296 453.55 398.83C455.038 398.456 456.558 398.225 458.09 398.14C458.673 398.111 459.257 398.111 459.84 398.14C460.285 398.142 460.729 398.169 461.17 398.22C461.549 398.226 461.925 398.28 462.29 398.38Z" fill="#263238"/>
<g opacity="0.3">
<path d="M355.63 360.77C353.28 365.23 355.24 370.67 357.39 375.24C359.06 378.78 360.92 382.37 363.96 384.84C365.453 386.061 367.183 386.96 369.041 387.481C370.899 388.002 372.844 388.133 374.755 387.866C376.666 387.6 378.501 386.941 380.145 385.931C381.789 384.922 383.207 383.583 384.31 382C377.935 381.905 371.738 379.884 366.534 376.202C361.329 372.52 357.361 367.35 355.15 361.37" fill="black"/>
</g>
<g opacity="0.3">
<path d="M401.54 358.59C399.74 362.88 401.1 368.75 402.98 373C404.86 377.25 406.86 382 405.35 386.41C404.96 387.193 404.758 388.056 404.76 388.93C404.86 389.79 405.76 390.62 406.57 390.22C406.989 389.926 407.278 389.482 407.38 388.98C408.8 384.7 410.223 380.423 411.65 376.15" fill="black"/>
</g>
<path d="M306.939 302.1C307.101 299.415 307.435 296.742 307.939 294.1C308.279 291.443 308.79 288.811 309.469 286.22C309.318 288.906 308.984 291.579 308.469 294.22C308.133 296.877 307.622 299.51 306.939 302.1Z" fill="#FAFAFA"/>
<path d="M296.41 299.89C296.28 299.97 294.56 297.57 292.18 294.81C289.8 292.05 287.7 289.98 287.8 289.87C289.593 291.181 291.201 292.729 292.58 294.47C294.087 296.103 295.374 297.925 296.41 299.89Z" fill="#FAFAFA"/>
<path d="M305.449 274.13C305.148 274.774 304.769 275.379 304.319 275.93C303.559 277 302.449 278.43 301.159 279.93C299.869 281.43 298.629 282.78 297.699 283.7C297.233 284.234 296.699 284.705 296.109 285.1C295.999 285 298.189 282.63 300.759 279.59C303.329 276.55 305.329 274 305.449 274.13Z" fill="#FAFAFA"/>
<path d="M301.92 261.54C301.77 261.6 301.2 260.33 300.1 259.06C299 257.79 297.82 257.06 297.9 256.91C298.941 257.21 299.852 257.846 300.49 258.72C301.259 259.481 301.761 260.47 301.92 261.54Z" fill="#FAFAFA"/>
<path d="M292.8 269.3C291.983 269.685 291.101 269.912 290.2 269.97C289.325 270.198 288.415 270.253 287.52 270.13C289.21 269.517 291.003 269.235 292.8 269.3Z" fill="#FAFAFA"/>
<path d="M315.81 280.41C315.832 278.854 315.722 277.298 315.48 275.76C315.066 274.258 314.52 272.796 313.85 271.39C314.984 272.555 315.728 274.044 315.98 275.65C316.408 277.217 316.348 278.878 315.81 280.41Z" fill="#FAFAFA"/>
<path d="M328.1 293.63C326.255 290.686 323.779 288.189 320.85 286.32C322.503 286.962 324.004 287.944 325.253 289.203C326.502 290.463 327.472 291.971 328.1 293.63Z" fill="#FAFAFA"/>
<path d="M308.371 316.57C305.394 317.686 302.096 317.574 299.201 316.26C299.251 316.11 301.201 316.74 303.771 316.81C306.341 316.88 308.331 316.42 308.371 316.57Z" fill="#FAFAFA"/>
<path d="M317.63 321.32C317.49 321.26 318.27 318.96 318.92 316.04C319.57 313.12 319.86 310.7 320.01 310.72C320.113 312.55 319.917 314.384 319.43 316.15C319.112 317.959 318.504 319.705 317.63 321.32Z" fill="#FAFAFA"/>
<path d="M337.86 322.09C336.278 320.753 334.816 319.281 333.49 317.69C332.027 316.217 330.689 314.625 329.49 312.93C331.066 314.274 332.525 315.749 333.85 317.34C335.312 318.813 336.653 320.401 337.86 322.09Z" fill="#FAFAFA"/>
<path d="M347.281 345.46C346.081 344.59 344.987 343.583 344.021 342.46C342.936 341.453 341.97 340.326 341.141 339.1C342.34 339.97 343.434 340.977 344.401 342.1C345.494 343.098 346.461 344.227 347.281 345.46Z" fill="#FAFAFA"/>
<path d="M329.77 347.69C328.621 348.914 327.267 349.929 325.77 350.69C324.362 351.628 322.798 352.305 321.15 352.69C321.15 352.55 323.15 351.69 325.51 350.28C327.87 348.87 329.67 347.57 329.77 347.69Z" fill="#FAFAFA"/>
<path d="M337.83 369.92C337.68 369.92 338.28 367.26 338.58 363.97C338.88 360.68 338.79 357.97 338.94 357.97C339.308 359.949 339.362 361.974 339.1 363.97C339.001 366.009 338.572 368.018 337.83 369.92Z" fill="#FAFAFA"/>
<path d="M368.141 351.85C366.489 350.839 365.024 349.55 363.811 348.04C362.474 346.644 361.394 345.022 360.621 343.25C360.751 343.16 362.121 345.33 364.201 347.7C366.281 350.07 368.241 351.72 368.141 351.85Z" fill="#FAFAFA"/>
<path d="M379.21 361.28C379.09 361.19 380.61 359.11 382.31 356.44C384.01 353.77 385.26 351.53 385.39 351.6C384.741 353.418 383.849 355.14 382.74 356.72C381.78 358.396 380.592 359.931 379.21 361.28Z" fill="#FAFAFA"/>
<path d="M377.59 338.2C374.175 337.633 370.826 336.728 367.59 335.5C369.314 335.706 371.015 336.074 372.67 336.6C374.36 336.966 376.008 337.502 377.59 338.2Z" fill="#FAFAFA"/>
<path d="M369.52 378.82C369.342 377.245 369.342 375.655 369.52 374.08C369.532 372.495 369.714 370.917 370.06 369.37C370.24 370.945 370.24 372.535 370.06 374.11C370.05 375.695 369.869 377.274 369.52 378.82Z" fill="#FAFAFA"/>
<path d="M376.5 392.73C377.024 391.115 377.445 389.468 377.76 387.8C377.898 386.107 377.925 384.407 377.84 382.71C378.356 384.374 378.503 386.131 378.272 387.858C378.041 389.585 377.436 391.24 376.5 392.71V392.73Z" fill="#FAFAFA"/>
<path d="M358.41 389.66C357.9 386.206 358.576 382.68 360.33 379.66C360.47 379.72 359.55 381.83 359.03 384.6C358.51 387.37 358.56 389.65 358.41 389.66Z" fill="#FAFAFA"/>
<path d="M341.91 396.71C340.28 395.578 338.711 394.359 337.21 393.06C335.604 391.897 334.059 390.652 332.58 389.33C334.378 390.226 336.057 391.341 337.58 392.65C339.177 393.83 340.63 395.192 341.91 396.71Z" fill="#FAFAFA"/>
<path d="M353.08 377.09C349.253 379.518 345.241 381.642 341.08 383.44C342.963 382.144 344.942 380.994 347 380C348.949 378.875 350.981 377.902 353.08 377.09Z" fill="#FAFAFA"/>
<path d="M387.789 421.12C387.577 421.189 387.36 421.243 387.139 421.28C386.709 421.36 386.079 421.52 385.259 421.63C382.944 421.984 380.601 422.135 378.259 422.08C372.209 421.992 366.247 420.622 360.765 418.061C355.284 415.499 350.408 411.804 346.459 407.22C344.166 404.581 342.201 401.673 340.609 398.56C339.524 396.474 338.627 394.295 337.929 392.05C337.659 391.26 337.529 390.63 337.409 390.21C337.343 389.995 337.299 389.774 337.279 389.55C337.375 389.753 337.452 389.963 337.509 390.18C337.659 390.59 337.819 391.18 338.119 391.99C340.037 397.472 342.99 402.534 346.819 406.9C350.778 411.379 355.609 415.003 361.017 417.549C366.424 420.096 372.295 421.512 378.269 421.71C380.606 421.797 382.947 421.703 385.269 421.43C386.099 421.35 386.729 421.22 387.159 421.18C387.366 421.136 387.578 421.116 387.789 421.12Z" fill="#263238"/>
<path d="M357.91 415.94C357.569 414.353 357.733 412.699 358.38 411.21C358.868 409.661 359.834 408.306 361.14 407.34C360.257 408.619 359.497 409.978 358.87 411.4C358.412 412.881 358.091 414.401 357.91 415.94Z" fill="#FAFAFA"/>
<path d="M349.679 412.5C348.73 413.235 347.859 414.066 347.079 414.98C346.43 415.987 345.88 417.055 345.439 418.17C345.473 416.902 345.899 415.676 346.658 414.661C347.417 413.646 348.473 412.891 349.679 412.5Z" fill="#FAFAFA"/>
<path d="M381.33 431.34C379.693 431.209 378.112 430.686 376.72 429.816C375.328 428.946 374.165 427.754 373.33 426.34C375.505 428.688 378.266 430.414 381.33 431.34Z" fill="#FAFAFA"/>
<path d="M386.25 403.64C386.04 405.11 385.419 406.491 384.458 407.623C383.498 408.756 382.236 409.593 380.82 410.04C381.989 409.233 383.074 408.312 384.06 407.29C384.914 406.152 385.648 404.929 386.25 403.64Z" fill="#FAFAFA"/>
<path d="M400.241 424.29C400.121 424.19 401.441 422.52 402.661 420.22C403.881 417.92 404.531 415.89 404.661 415.94C404.094 419.121 402.541 422.042 400.221 424.29H400.241Z" fill="#FAFAFA"/>
<path d="M418.73 427C418.79 427.15 416.97 427.87 415.14 429.38C413.31 430.89 412.21 432.51 412.08 432.38C412.655 431 413.6 429.806 414.81 428.93C415.912 427.935 417.27 427.267 418.73 427Z" fill="#FAFAFA"/>
<path d="M404.63 403.33C404.47 403.38 403.63 400.46 401.76 397.22C399.89 393.98 397.89 391.7 398.02 391.6C398.569 391.987 399.051 392.46 399.45 393C401.554 395.459 403.158 398.306 404.17 401.38C404.421 402.003 404.576 402.661 404.63 403.33Z" fill="#FAFAFA"/>
<path d="M407.391 373.56C404.278 374.635 401.06 375.376 397.791 375.77C400.904 374.698 404.122 373.957 407.391 373.56Z" fill="#FAFAFA"/>
<path d="M398.88 364.66C397.738 363.598 396.712 362.419 395.82 361.14C394.802 359.962 393.913 358.678 393.17 357.31C394.323 358.357 395.349 359.535 396.23 360.82C397.258 361.994 398.147 363.283 398.88 364.66Z" fill="#FAFAFA"/>
<path d="M420.001 359.32C416.76 359.24 413.572 358.483 410.641 357.1C412.224 357.371 413.79 357.735 415.331 358.19C416.909 358.472 418.468 358.849 420.001 359.32Z" fill="#FAFAFA"/>
<path d="M435 359.05C435.43 357.635 435.941 356.246 436.53 354.89C436.952 353.469 437.463 352.077 438.06 350.72C437.979 352.217 437.64 353.688 437.06 355.07C436.614 356.508 435.916 357.855 435 359.05Z" fill="#FAFAFA"/>
<path d="M431.58 379.37C428.479 378.677 425.677 377.018 423.58 374.63C423.68 374.51 425.26 375.89 427.45 377.18C429.64 378.47 431.63 379.22 431.58 379.37Z" fill="#FAFAFA"/>
<path d="M441.321 378.75C441.522 376.743 441.89 374.756 442.421 372.81C442.783 370.832 443.311 368.889 444.001 367C443.44 370.991 442.533 374.926 441.291 378.76L441.321 378.75Z" fill="#FAFAFA"/>
<path d="M433.189 401.47C430.693 398.645 428.464 395.596 426.529 392.36C427.84 393.717 429.025 395.19 430.069 396.76C431.252 398.231 432.297 399.807 433.189 401.47Z" fill="#FAFAFA"/>
<path d="M447.07 392.78C446.93 392.85 446.02 391.04 444.58 389.02C443.14 387 441.75 385.53 441.86 385.42C443.117 386.301 444.188 387.423 445.01 388.72C445.965 389.919 446.666 391.301 447.07 392.78Z" fill="#FAFAFA"/>
<path d="M460.089 390.83C458.949 389.491 457.881 388.092 456.889 386.64C455.753 385.301 454.685 383.906 453.689 382.46C456.35 384.804 458.524 387.648 460.089 390.83Z" fill="#FAFAFA"/>
<path d="M457.001 399.46C456.822 398.259 456.419 397.102 455.811 396.05C455.079 395.079 454.174 394.252 453.141 393.61C453.141 393.55 453.601 393.61 454.231 393.92C455.043 394.353 455.732 394.986 456.231 395.76C456.74 396.532 457.046 397.419 457.121 398.34C457.221 399 457.091 399.46 457.001 399.46Z" fill="#FAFAFA"/>
<path d="M446.88 411.29C446.8 411.29 446.83 411.02 446.75 410.67C446.655 410.22 446.412 409.815 446.06 409.52C445.691 409.247 445.239 409.109 444.78 409.13C444.42 409.13 444.19 409.22 444.15 409.13C444.11 409.04 444.3 408.86 444.73 408.74C445.013 408.666 445.308 408.659 445.595 408.718C445.881 408.777 446.15 408.901 446.38 409.081C446.61 409.261 446.796 409.492 446.922 409.755C447.049 410.019 447.113 410.308 447.11 410.6C447.1 411.08 446.94 411.31 446.88 411.29Z" fill="#FAFAFA"/>
<path d="M342.84 430.2C340.972 429.48 339.275 428.38 337.856 426.968C336.437 425.556 335.328 423.864 334.6 422C336.639 425.373 339.467 428.2 342.84 430.24V430.2Z" fill="#FAFAFA"/>
<path d="M279.19 182C277.58 166.79 274.67 152.48 273.88 137.57C273.911 137.196 273.864 136.82 273.742 136.465C273.62 136.111 273.425 135.785 273.17 135.51C272.952 135.383 272.711 135.301 272.46 135.27C272.21 135.239 271.956 135.259 271.714 135.329C271.472 135.399 271.246 135.518 271.051 135.678C270.856 135.838 270.696 136.036 270.58 136.26C270.144 137.196 269.971 138.233 270.08 139.26C270.097 147.189 268.744 155.062 266.08 162.53C264.37 167.38 262.08 172.03 260.8 177C259.52 181.97 261.93 183.66 264.17 188.29" fill="#FFBE9D"/>
<path d="M264.2 188.27C262.219 186.75 260.682 184.726 259.752 182.409C258.821 180.092 258.53 177.568 258.91 175.1C259.42 172.1 260.91 169.38 262.09 166.58C263.27 163.78 264.18 160.67 263.46 157.72C263.062 156.625 262.793 155.487 262.66 154.33C262.66 153.17 263.41 151.87 264.57 151.82C265.008 151.855 265.433 151.992 265.809 152.22C266.186 152.447 266.504 152.759 266.74 153.13C268.69 155.54 270.25 162.58 269.27 167.84" fill="#FFBE9D"/>
<path d="M269.27 167.84C269.27 167.84 269.37 167.03 269.43 165.57C269.493 163.511 269.322 161.451 268.92 159.43C268.651 158.038 268.249 156.675 267.72 155.36C267.442 154.644 267.065 153.971 266.6 153.36C266.392 153.032 266.118 152.75 265.797 152.532C265.475 152.313 265.112 152.163 264.73 152.09C264.337 152.109 263.961 152.256 263.659 152.509C263.358 152.761 263.147 153.106 263.06 153.49C262.846 154.343 262.902 155.241 263.22 156.06C263.556 156.975 263.791 157.924 263.92 158.89C264.017 159.89 263.98 160.899 263.81 161.89C263.11 165.95 260.95 169.23 259.81 172.48C259.248 173.998 258.947 175.601 258.92 177.22C258.914 178.63 259.123 180.033 259.54 181.38C260.146 183.345 261.169 185.157 262.54 186.69C263.54 187.76 264.19 188.23 264.16 188.28C263.982 188.189 263.814 188.079 263.66 187.95C263.209 187.606 262.784 187.228 262.39 186.82C260.929 185.312 259.834 183.489 259.19 181.49C258.734 180.112 258.498 178.671 258.49 177.22C258.499 175.549 258.793 173.892 259.36 172.32C260.46 169 262.59 165.72 263.25 161.81C263.421 160.86 263.458 159.89 263.36 158.93C263.24 157.991 263.015 157.069 262.69 156.18C262.344 155.261 262.295 154.258 262.55 153.31C262.699 152.837 262.972 152.412 263.34 152.08C263.524 151.908 263.742 151.776 263.979 151.692C264.217 151.607 264.469 151.573 264.72 151.59C265.178 151.651 265.618 151.808 266.011 152.051C266.404 152.294 266.741 152.617 267 153C267.486 153.662 267.877 154.389 268.16 155.16C268.689 156.503 269.078 157.897 269.32 159.32C269.699 161.37 269.817 163.46 269.67 165.54C269.635 166.104 269.562 166.666 269.45 167.22C269.42 167.434 269.359 167.643 269.27 167.84Z" fill="#EB996E"/>
<path d="M400 249.05C400.327 250.481 401.102 251.77 402.211 252.73C403.321 253.69 404.708 254.272 406.17 254.39C407.636 254.462 409.096 254.16 410.413 253.513C411.731 252.866 412.862 251.894 413.7 250.69C415.361 248.241 416.029 245.253 415.57 242.33C415 238.12 412.2 234.07 408.14 232.82C404.08 231.57 399.03 233.82 397.91 237.9L393.23 244.43L400 249.05Z" fill="#263238"/>
<path d="M394.47 236.22C394.924 232.601 394.646 228.928 393.653 225.419C392.66 221.909 390.973 218.635 388.691 215.79C386.408 212.946 383.578 210.588 380.367 208.859C377.156 207.129 373.631 206.061 370 205.72C355.49 204.34 342.58 215.15 340.41 229.57C338.5 242.21 336.86 254.97 336.92 259.57C337.1 273.57 345.27 278.99 348.59 280.57C349.781 281 351.015 281.305 352.27 281.48C352.282 281.482 352.293 281.487 352.303 281.494C352.313 281.501 352.322 281.51 352.328 281.52C352.335 281.53 352.339 281.542 352.341 281.554C352.343 281.566 352.342 281.578 352.34 281.59L349.24 297.59C347.83 308.1 353.7 317.48 364.19 319.01C374.68 320.54 382.95 312.47 384.56 301.95L394.47 236.22Z" fill="#FFBE9D"/>
<path d="M342.82 237.74C343.05 238.07 344.89 237.08 347.26 237.43C349.63 237.78 351.18 239.22 351.48 238.96C351.63 238.85 351.42 238.3 350.75 237.64C349.83 236.78 348.667 236.225 347.42 236.05C346.189 235.871 344.933 236.085 343.83 236.66C343 237.11 342.7 237.59 342.82 237.74Z" fill="#263238"/>
<path d="M363.861 242.3C364.091 242.63 365.941 241.64 368.301 241.99C370.661 242.34 372.231 243.78 372.531 243.52C372.671 243.41 372.471 242.86 371.791 242.19C370.873 241.335 369.713 240.783 368.471 240.61C367.24 240.43 365.983 240.644 364.881 241.22C364.071 241.67 363.751 242.15 363.861 242.3Z" fill="#263238"/>
<path d="M355.679 253.48C354.489 252.91 353.233 252.49 351.939 252.23C351.339 252.08 350.789 251.87 350.749 251.45C350.789 250.82 351.019 250.216 351.409 249.72L353.869 245.38C357.299 239.19 359.869 234.07 359.629 233.93C359.389 233.79 356.389 238.7 352.959 244.93L350.569 249.3C350.091 249.979 349.858 250.801 349.909 251.63C349.973 251.85 350.083 252.054 350.234 252.226C350.384 252.399 350.57 252.537 350.779 252.63C351.1 252.767 351.436 252.864 351.779 252.92C353.05 253.271 354.361 253.459 355.679 253.48Z" fill="#263238"/>
<path d="M352.359 281.58C352.359 281.58 361.359 283.66 373.809 278.46C373.809 278.46 368.449 290.01 351.529 285.9L352.359 281.58Z" fill="#EB996E"/>
<path d="M355.85 259.33C356.38 258.842 357.024 258.495 357.723 258.321C358.422 258.146 359.153 258.149 359.85 258.33C360.365 258.457 360.849 258.685 361.275 259.001C361.701 259.317 362.06 259.714 362.33 260.17C362.59 260.609 362.707 261.118 362.666 261.626C362.625 262.135 362.427 262.618 362.1 263.01C361.661 263.382 361.119 263.612 360.546 263.671C359.974 263.73 359.396 263.614 358.89 263.34C357.829 262.787 356.89 262.025 356.13 261.1C355.886 260.874 355.689 260.602 355.55 260.3C355.481 260.156 355.457 259.995 355.482 259.838C355.507 259.681 355.58 259.535 355.69 259.42" fill="#EB996E"/>
<path d="M362.399 256.13C362.019 256.05 361.639 258.62 359.179 260.13C356.719 261.64 354.019 260.95 353.949 261.31C353.889 261.47 354.489 261.9 355.639 262.1C357.14 262.337 358.676 262.04 359.979 261.26C361.23 260.508 362.141 259.3 362.519 257.89C362.769 256.82 362.579 256.14 362.399 256.13Z" fill="#263238"/>
<path d="M365.489 234.6C365.629 235.28 368.039 235.32 370.759 236.06C373.479 236.8 375.629 237.88 376.079 237.36C376.279 237.11 375.979 236.45 375.169 235.69C374.072 234.751 372.775 234.073 371.377 233.709C369.978 233.346 368.516 233.305 367.099 233.59C365.999 233.85 365.439 234.28 365.489 234.6Z" fill="#263238"/>
<path d="M345.211 230.45C345.541 231.05 347.261 230.73 349.211 230.99C351.161 231.25 352.781 231.87 353.211 231.37C353.421 231.12 353.211 230.54 352.581 229.93C351.697 229.176 350.608 228.703 349.454 228.571C348.299 228.439 347.132 228.655 346.101 229.19C345.371 229.64 345.061 230.16 345.211 230.45Z" fill="#263238"/>
<path d="M337.67 226.44C340.56 230.85 349.74 228.12 355.28 225.09C358.174 226.936 361.674 227.58 365.035 226.885C368.397 226.191 371.355 224.212 373.28 221.37C376.45 225.37 382.9 224.07 385.28 219.52C387.66 214.97 386.28 208.7 383.08 204.72C379.88 200.74 375.14 198.72 370.48 197.87C359.43 195.87 347.4 200.11 340.79 210.1C337.74 214.71 335.91 220.92 337.72 226.44" fill="#263238"/>
<path d="M368.21 199.44C368.21 199.64 365.6 199.14 361.5 199.82C356.174 200.706 351.293 203.333 347.62 207.29C344.163 211.433 341.877 216.426 341 221.75C340.696 223.97 340.579 226.211 340.65 228.45C340.437 227.872 340.312 227.265 340.28 226.65C340.105 224.986 340.132 223.307 340.36 221.65C341.085 216.119 343.382 210.913 346.98 206.65C350.782 202.533 355.904 199.876 361.46 199.14C363.118 198.917 364.796 198.89 366.46 199.06C367.059 199.096 367.649 199.225 368.21 199.44Z" fill="#455A64"/>
<path d="M353.271 220C353.106 219.494 353.032 218.962 353.051 218.43C352.999 216.979 353.15 215.529 353.501 214.12C354.036 211.758 355.049 209.53 356.477 207.574C357.905 205.618 359.719 203.974 361.806 202.745C363.893 201.516 366.21 200.728 368.613 200.427C371.016 200.127 373.456 200.322 375.781 201C377.185 201.385 378.53 201.957 379.781 202.7C380.263 202.951 380.694 203.29 381.051 203.7C379.307 202.875 377.493 202.205 375.631 201.7C371.102 200.546 366.301 201.23 362.273 203.601C358.246 205.973 355.319 209.84 354.131 214.36C353.151 217.7 353.461 220 353.271 220Z" fill="#455A64"/>
<path d="M379.78 215.2C378.696 219.114 378.072 223.141 377.92 227.2C377.77 231.281 379.039 235.288 381.51 238.54C385.37 243.19 391.81 244.61 397.75 245.74C400.928 237.813 401.885 229.17 400.52 220.74C399.84 216.65 398.52 212.48 395.64 209.5C393.499 207.388 390.717 206.045 387.731 205.683C384.746 205.322 381.724 205.96 379.14 207.5" fill="#263238"/>
<path d="M383.081 234.56C381.521 237.94 381.631 241.85 382.171 245.56C382.711 249.27 383.651 252.9 383.611 256.62C383.571 260.34 382.391 264.29 379.471 266.62C378.586 267.21 377.756 267.88 376.991 268.62C376.614 268.996 376.361 269.479 376.268 270.003C376.175 270.527 376.246 271.067 376.471 271.55C377.031 272.45 378.721 272.43 378.961 271.4L378.811 271.66C378.664 271.909 378.585 272.193 378.581 272.482C378.578 272.771 378.651 273.057 378.793 273.309C378.935 273.561 379.141 273.772 379.389 273.919C379.638 274.067 379.922 274.147 380.211 274.15C381.233 274.101 382.234 273.843 383.152 273.393C384.071 272.942 384.887 272.308 385.551 271.53C387.461 269.32 388.221 266.35 388.721 263.53C390.261 254.7 389.961 245.53 392.401 236.92" fill="#263238"/>
<path d="M349.171 292.55C349.859 295.558 351.187 298.383 353.064 300.832C354.941 303.282 357.323 305.299 360.048 306.746C362.773 308.194 365.778 309.038 368.859 309.222C371.939 309.405 375.023 308.924 377.901 307.81C383.081 305.81 387.261 301.91 391.291 298.1C392.012 302.437 391.813 306.878 390.708 311.133C389.602 315.389 387.615 319.365 384.874 322.803C382.133 326.241 378.699 329.064 374.797 331.089C370.894 333.115 366.61 334.297 362.221 334.56C355.591 334.96 348.471 332.94 344.301 327.77C341.391 324.17 340.221 319.4 340.301 314.77C340.503 310.133 341.386 305.551 342.921 301.17C344.101 297.39 345.971 293.17 349.791 292.12" fill="#673BB7"/>
<path d="M396.609 246C400.609 248.15 402.749 252.65 403.519 257.09C404.289 261.53 403.899 266.09 404.089 270.58C404.279 275.07 405.139 279.79 407.989 283.28C410.989 287 415.739 288.76 419.989 291.03C429.309 296.03 436.989 304.56 439.789 314.78C442.589 325 440.049 336.78 432.399 344.13C425.399 350.79 415.299 353.13 405.659 353.13C398.789 353.13 391.239 351.65 386.949 346.28C382.659 340.91 382.949 333.38 384.449 326.76C385.949 320.14 388.699 313.71 388.809 306.92C387.783 311.124 385.993 315.103 383.529 318.66C382.819 319.66 381.609 320.76 380.529 320.18C379.449 319.6 379.779 317.73 380.339 316.48C388.619 298.05 385.739 260.9 390.649 240.55" fill="#263238"/>
<path d="M389.79 243.91C390.04 243.83 399.71 242 398.46 251.56C397.21 261.12 387.88 257.9 387.9 257.63C387.92 257.36 389.79 243.91 389.79 243.91Z" fill="#FFBE9D"/>
<path d="M391.289 254.39C391.289 254.39 391.439 254.52 391.709 254.69C392.083 254.91 392.527 254.978 392.949 254.88C394.009 254.64 395.069 253.14 395.339 251.43C395.466 250.611 395.411 249.775 395.179 248.98C395.129 248.669 395.003 248.376 394.813 248.125C394.623 247.874 394.375 247.673 394.089 247.54C393.91 247.476 393.714 247.474 393.533 247.534C393.352 247.594 393.196 247.712 393.089 247.87C392.929 248.12 392.959 248.32 392.909 248.33C392.859 248.34 392.729 248.14 392.849 247.76C392.935 247.529 393.097 247.335 393.309 247.21C393.458 247.121 393.624 247.063 393.796 247.041C393.968 247.018 394.143 247.032 394.309 247.08C394.692 247.209 395.035 247.434 395.307 247.734C395.578 248.033 395.768 248.396 395.859 248.79C396.155 249.671 396.234 250.611 396.089 251.53C395.779 253.45 394.559 255.12 393.089 255.34C392.823 255.383 392.551 255.364 392.293 255.286C392.034 255.208 391.797 255.073 391.599 254.89C391.279 254.62 391.259 254.4 391.289 254.39Z" fill="#EB996E"/>
<path d="M339.291 313.15C339.76 312.129 340.302 311.144 340.911 310.2C342.305 307.893 343.461 305.451 344.361 302.91C345.236 300.367 345.529 297.661 345.221 294.99C345.026 293.894 344.773 292.809 344.461 291.74C344.649 291.983 344.795 292.257 344.891 292.55C345.217 293.316 345.452 294.119 345.591 294.94C346.012 297.669 345.761 300.46 344.861 303.07C343.953 305.649 342.734 308.107 341.231 310.39C340.671 311.27 340.231 311.97 339.861 312.44C339.491 312.91 339.321 313.17 339.291 313.15Z" fill="#263238"/>
<path d="M344.16 302.12C344.02 302.12 343.75 301.3 342.89 300.73C342.03 300.16 341.17 300.16 341.15 300.01C341.13 299.86 341.36 299.84 341.75 299.83C342.267 299.835 342.77 299.999 343.19 300.3C343.613 300.596 343.94 301.01 344.13 301.49C344.26 301.86 344.23 302.1 344.16 302.12Z" fill="#FAFAFA"/>
<path d="M350.339 302.1C349.59 301.258 348.767 300.485 347.879 299.79C346.894 299.239 345.856 298.79 344.779 298.45C345.375 298.368 345.981 298.406 346.562 298.562C347.142 298.718 347.686 298.99 348.159 299.36C349.216 299.954 349.998 300.937 350.339 302.1Z" fill="#FAFAFA"/>
<path d="M354.221 322.39C354.244 321.011 354.439 319.641 354.801 318.31C354.994 316.936 355.36 315.592 355.891 314.31C355.868 315.692 355.673 317.066 355.311 318.4C355.117 319.771 354.751 321.111 354.221 322.39Z" fill="#FAFAFA"/>
<path d="M369.819 325.45C369.569 322.58 369.66 319.689 370.089 316.84C370.353 319.71 370.262 322.602 369.819 325.45Z" fill="#FAFAFA"/>
<path d="M51.3106 369.89L35.8906 437.04L68.5006 437.14L83.5606 378.09L51.3106 369.89Z" fill="#B78876"/>
<path d="M211.45 287.39C208.35 283.24 204.79 279.25 203.16 274.33C202.37 271.95 202.06 269.43 201.22 267.07C200.38 264.71 198.85 262.41 196.51 261.52C194.17 260.63 192.39 261.52 190.87 263.2L179.68 295.93L186.13 321.07C192.57 319.62 200.63 317.9 206.65 315.19C212.67 312.48 216.65 308.14 217.07 301.55C217.36 296.38 214.55 291.55 211.45 287.39Z" fill="#263238"/>
<path d="M109.62 281.61C109.62 281.61 70.72 298.54 65.86 306.18C61 313.82 45 368.29 45 368.29L86 380.29L85.3 437H185.8L184.97 337L172.37 281.74C172.37 281.74 150.18 280.31 148.12 279.3C146.06 278.29 109.62 281.61 109.62 281.61Z" fill="#673BB7"/>
<path d="M247.861 143C248.181 140.71 246.571 138.19 247.731 136.18C248.498 135.144 249.595 134.4 250.841 134.07C251.445 133.794 252.097 133.641 252.761 133.62C253.092 133.615 253.417 133.707 253.696 133.884C253.975 134.062 254.196 134.318 254.331 134.62C254.403 135.003 254.369 135.397 254.234 135.762C254.098 136.127 253.865 136.448 253.561 136.69C252.952 137.169 252.439 137.759 252.051 138.43C251.779 140.076 251.906 141.763 252.421 143.35C253.753 146.842 254.859 150.416 255.731 154.05" fill="#B78876"/>
<path d="M239.65 143.78C239.79 140.31 242.65 126.64 242.75 123.17C245.1 123.89 246.46 126.39 246.9 128.81C247.34 131.23 247.11 133.72 247.53 136.14C248.09 139.39 249.78 142.32 251.48 145.14C253.18 147.96 254.96 150.83 255.73 154.03C256.5 157.23 259.4 165.55 257.14 167.95" fill="#B78876"/>
<path d="M239.001 167.18L225.091 233.26C224.601 236.26 172.371 281.81 172.371 281.81L182.681 323L250.681 256.47C255.591 251.221 258.263 244.266 258.131 237.08L256.971 175.08L239.001 167.18Z" fill="#B78876"/>
<path d="M236.621 144.2L239.001 167.2L257.001 175.12C257.001 175.12 257.221 173.49 258.001 165.52C258.851 156.74 249.411 152.97 245.201 146.52C243.401 143.75 243.871 138.65 242.481 132.33C242.321 131.6 241.321 127.18 240.781 124.81C240.497 123.493 239.726 122.332 238.621 121.56C237.801 121.02 236.881 120.75 236.211 121.56C235.541 122.37 236.621 144.2 236.621 144.2Z" fill="#B78876"/>
<path d="M247.86 171C249.86 169.27 250.34 166.17 249.59 163.6C248.672 161.069 247.223 158.764 245.34 156.84C243.46 154.92 241.879 152.729 240.65 150.34C239.89 148.62 239.53 146.72 238.65 145.03C237.77 143.34 236.28 141.79 234.4 141.72C235.91 151.23 235.87 156.72 238.96 167.14" fill="#B78876"/>
<path d="M236.271 152.58C236.271 152.58 236.201 152.32 236.091 151.82C235.981 151.32 235.791 150.49 235.611 149.64C235.181 147.64 234.611 145.09 234.021 142.16L233.961 141.88H234.251C234.866 141.858 235.48 141.957 236.057 142.174C236.634 142.39 237.162 142.718 237.611 143.14C238.984 144.447 239.961 146.114 240.431 147.95C240.83 149.377 241.355 150.766 242.001 152.1C242.49 152.976 243.081 153.792 243.761 154.53C244.009 154.814 244.211 155.134 244.361 155.48C244.087 155.226 243.833 154.952 243.601 154.66C242.857 153.957 242.211 153.156 241.681 152.28C240.974 150.942 240.398 149.539 239.961 148.09C239.496 146.346 238.562 144.762 237.261 143.51C236.45 142.749 235.373 142.336 234.261 142.36L234.501 142.06C235.711 148.08 236.491 152.59 236.271 152.58Z" fill="#7C5142"/>
<path d="M244.361 146.73C243.635 143.636 243.081 140.505 242.701 137.35C242.145 134.22 241.761 131.062 241.551 127.89C242.282 130.986 242.836 134.121 243.211 137.28C243.766 140.407 244.15 143.562 244.361 146.73Z" fill="#7C5142"/>
<path d="M250.09 147.51C250.09 147.51 250.16 147.61 250.22 147.86H250.07C249.327 145.72 248.719 143.536 248.25 141.32C247.82 139.39 247.51 137.63 247.32 136.32C247.166 135.635 247.105 134.932 247.14 134.23C247.29 134.23 247.9 137.34 248.76 141.23C249.45 144.34 250.09 146.96 250.22 147.84H250.07C250.06 147.63 250.06 147.51 250.09 147.51Z" fill="#7C5142"/>
<path d="M253.64 160.18C253.56 160.18 253.2 159.66 252.48 158.89C250.578 156.869 247.996 155.622 245.23 155.39C244.651 155.395 244.073 155.358 243.5 155.28C244.054 155.065 244.648 154.977 245.24 155.02C246.681 155.038 248.101 155.373 249.399 156C250.696 156.627 251.84 157.532 252.75 158.65C253.159 159.086 253.464 159.609 253.64 160.18Z" fill="#7C5142"/>
<path d="M240.63 169C240.135 168.139 239.736 167.227 239.44 166.28C238.618 164.036 237.93 161.745 237.38 159.42C236.82 157.114 236.399 154.776 236.12 152.42C235.956 151.429 235.896 150.423 235.94 149.42C236.191 150.375 236.371 151.348 236.48 152.33C236.78 154.12 237.24 156.6 237.88 159.33C238.52 162.06 239.24 164.45 239.79 166.19C240.135 167.106 240.415 168.045 240.63 169Z" fill="#7C5142"/>
<path d="M160.16 283C161.051 281.636 162.433 280.667 164.02 280.294C165.606 279.922 167.275 280.175 168.68 281C176.02 275 183.53 269.18 190.87 263.21C188.47 275.21 186.87 291.94 192.24 302.92C192.24 302.92 199.01 315.5 209.79 313.58L200.17 323L185 337.07" fill="#673BB7"/>
<path d="M157.781 288.6C157.793 286.99 158.283 285.42 159.191 284.09C159.958 282.67 161.127 281.508 162.551 280.75C160.292 282.896 158.645 285.606 157.781 288.6Z" fill="#263238"/>
<path d="M165.711 296C165.295 295.334 165.01 294.594 164.871 293.82C164.439 291.966 164.388 290.043 164.719 288.168C165.051 286.293 165.759 284.504 166.801 282.91C167.198 282.228 167.721 281.628 168.341 281.14C168.411 281.2 167.831 281.88 167.121 283.14C166.197 284.734 165.558 286.477 165.231 288.29C164.918 290.107 164.918 291.964 165.231 293.78C165.481 295.08 165.791 295.92 165.711 296Z" fill="#263238"/>
<path d="M202.451 321.68C201.713 322.139 200.906 322.477 200.061 322.68C197.751 323.237 195.334 323.165 193.061 322.47C189.696 321.401 186.75 319.303 184.641 316.47C182.108 312.997 180.398 308.992 179.641 304.76C178.229 297.139 177.826 289.366 178.441 281.64C178.671 278.64 179.001 276.3 179.281 274.64C179.411 273.82 179.531 273.19 179.621 272.76C179.653 272.539 179.706 272.321 179.781 272.11C179.788 272.335 179.768 272.56 179.721 272.78L179.481 274.67C179.271 276.31 178.991 278.67 178.811 281.67C178.3 289.363 178.75 297.089 180.151 304.67C180.9 308.793 182.557 312.697 185.001 316.1C187.024 318.904 189.874 321.002 193.151 322.1C195.364 322.813 197.724 322.94 200.001 322.47C200.835 322.262 201.653 321.998 202.451 321.68Z" fill="#FAFAFA"/>
<path d="M86.1897 397.17C86.0497 397.17 85.9297 382.95 85.9297 365.42C85.9297 347.89 86.0497 333.67 86.1897 333.67C86.3297 333.67 86.4497 347.88 86.4497 365.42C86.4497 382.96 86.3397 397.17 86.1897 397.17Z" fill="#263238"/>
<path d="M85.3906 322.7C85.2806 322.7 85.3106 321.28 84.8206 319.07C84.5286 317.779 84.1099 316.519 83.5706 315.31C82.8985 313.839 82.0704 312.444 81.1006 311.15C80.1037 309.874 78.974 308.707 77.7306 307.67C76.7067 306.833 75.605 306.096 74.4406 305.47C72.4406 304.42 71.0506 304.07 71.0806 303.97C71.4219 303.987 71.7588 304.055 72.0806 304.17C72.4596 304.264 72.8307 304.388 73.1906 304.54C73.6811 304.709 74.159 304.913 74.6206 305.15C75.8218 305.738 76.9552 306.456 78.0006 307.29C79.2843 308.338 80.448 309.526 81.4706 310.83C82.4686 312.157 83.3076 313.597 83.9706 315.12C84.5152 316.365 84.9209 317.666 85.1806 319C85.2832 319.508 85.3533 320.023 85.3906 320.54C85.4373 320.928 85.4574 321.319 85.4505 321.71C85.4687 322.041 85.4486 322.373 85.3906 322.7Z" fill="#263238"/>
<path d="M153.881 281.17C153.964 281.448 154.021 281.732 154.051 282.02C154.186 282.831 154.273 283.649 154.311 284.47C154.43 287.504 154.007 290.535 153.061 293.42C151.652 297.723 149.154 301.588 145.811 304.64C141.617 308.305 136.351 310.515 130.798 310.94C125.245 311.366 119.704 309.983 115.001 307C111.242 304.484 108.196 301.04 106.161 297C104.798 294.289 103.927 291.356 103.591 288.34C103.51 287.523 103.473 286.702 103.481 285.88C103.457 285.594 103.457 285.306 103.481 285.02C103.528 285.301 103.551 285.585 103.551 285.87C103.577 286.686 103.643 287.501 103.751 288.31C104.161 291.283 105.074 294.164 106.451 296.83C108.491 300.788 111.51 304.158 115.221 306.62C119.839 309.524 125.266 310.87 130.705 310.461C136.144 310.053 141.309 307.911 145.441 304.35C148.748 301.361 151.234 297.573 152.661 293.35C153.619 290.506 154.093 287.521 154.061 284.52C154.061 283.46 153.971 282.64 153.891 282.08C153.811 281.52 153.871 281.18 153.881 281.17Z" fill="#263238"/>
<path d="M85.3298 367.93C85.3298 368.07 77.0198 365.46 66.8798 362.11C56.7398 358.76 48.5498 355.93 48.5998 355.79C48.6498 355.65 56.8998 358.26 67.0498 361.61C77.1998 364.96 85.3698 367.79 85.3298 367.93Z" fill="#FAFAFA"/>
<path d="M184 354.05C184 354.2 161.95 354.41 134.75 354.52C107.55 354.63 85.4902 354.61 85.4902 354.52C85.4902 354.43 107.54 354.16 134.75 354.05C161.96 353.94 184 353.91 184 354.05Z" fill="#FAFAFA"/>
<path d="M184.5 362.76C184.5 362.9 162.33 363.02 135 363.02C107.67 363.02 85.4902 362.9 85.4902 362.76C85.4902 362.62 107.65 362.5 135 362.5C162.35 362.5 184.5 362.61 184.5 362.76Z" fill="#FAFAFA"/>
<path d="M170.92 373.34C170.853 373.618 170.759 373.889 170.64 374.15C170.42 374.71 170.12 375.47 169.75 376.43L169.09 378.07C168.83 378.67 168.52 379.3 168.2 379.99C167.54 381.35 166.86 382.93 165.91 384.59L164.47 387.21C163.97 388.12 163.37 389.02 162.79 389.98C161.65 391.91 160.25 393.85 158.79 395.92C155.543 400.319 151.966 404.464 148.09 408.32C144.159 412.123 139.944 415.619 135.48 418.78C133.38 420.18 131.41 421.55 129.48 422.65C128.48 423.21 127.6 423.79 126.68 424.28L124 425.66C122.33 426.57 120.73 427.23 119.36 427.86C118.67 428.16 118.03 428.46 117.43 428.71L115.77 429.34L113.48 430.19C113.216 430.303 112.941 430.39 112.66 430.45C112.91 430.309 113.171 430.188 113.44 430.09L115.7 429.15L117.33 428.48C117.93 428.22 118.56 427.91 119.24 427.59C120.6 426.94 122.18 426.26 123.83 425.33L126.46 423.93C127.37 423.43 128.28 422.84 129.24 422.28C131.17 421.17 133.12 419.79 135.24 418.39C144.148 412.105 151.982 404.423 158.44 395.64C159.89 393.59 161.3 391.64 162.44 389.75C163.03 388.8 163.64 387.91 164.15 387.01L165.6 384.41C166.6 382.78 167.27 381.21 167.95 379.86C168.28 379.18 168.61 378.56 168.88 377.97C169.15 377.38 169.37 376.84 169.58 376.35C169.99 375.41 170.32 374.67 170.58 374.11C170.68 373.848 170.794 373.591 170.92 373.34Z" fill="#263238"/>
<g opacity="0.3">
<path d="M166.86 382C160.14 390.18 153.1 396.11 143.23 399.93C138.5 401.75 133.55 403 128.97 405.17C124.39 407.34 120.07 410.61 117.97 415.24C116.38 418.82 117.15 424.24 120.97 425.02C122.454 425.202 123.96 424.97 125.32 424.35C144.87 417.26 157.72 399.35 166.8 382" fill="black"/>
</g>
<path d="M96.9297 204.08C92.7097 207.39 92.4297 213.58 92.6397 218.94C92.8497 224.3 92.9097 230.4 88.9997 234.1C85.7997 237.15 80.1997 238.28 79.2797 242.61C79.0468 243.63 79.1399 244.698 79.5458 245.662C79.9518 246.627 80.6501 247.44 81.5424 247.986C82.4346 248.533 83.476 248.786 84.5196 248.709C85.5632 248.633 86.5565 248.231 87.3597 247.56C85.9997 250.95 86.6197 255.29 89.5097 257.56C92.3997 259.83 97.4497 258.75 98.5097 255.27C98.3458 255.846 98.3006 256.449 98.3768 257.042C98.453 257.636 98.649 258.208 98.9529 258.724C99.2568 259.24 99.6623 259.688 100.145 260.043C100.627 260.397 101.177 260.649 101.76 260.785C102.343 260.921 102.947 260.936 103.536 260.831C104.126 260.726 104.688 260.503 105.188 260.174C105.688 259.845 106.116 259.418 106.447 258.919C106.777 258.42 107.003 257.859 107.11 257.27" fill="#263238"/>
<path d="M158.171 242.89C158.372 243.592 158.715 244.246 159.18 244.81C159.644 245.374 160.22 245.837 160.87 246.169C161.521 246.502 162.233 246.697 162.962 246.742C163.691 246.788 164.422 246.683 165.109 246.434C165.796 246.186 166.425 245.798 166.956 245.297C167.487 244.795 167.909 244.189 168.196 243.517C168.483 242.845 168.629 242.122 168.625 241.391C168.62 240.66 168.466 239.938 168.171 239.27C167.341 237.19 165.171 235.62 165.121 233.39C164.991 230.69 167.831 228.9 170.321 227.85C172.811 226.8 175.731 225.4 176.121 222.73C176.511 220.06 174.281 218.01 172.421 216.18C170.561 214.35 168.771 211.57 170.081 209.31C170.751 208.16 172.081 207.54 172.941 206.53C174.881 204.29 174.101 200.53 171.861 198.62C169.621 196.71 166.411 196.27 163.481 196.62C160.551 196.97 157.751 198.07 154.881 198.78C150.122 199.929 145.176 200.077 140.356 199.217C135.537 198.356 130.948 196.505 126.881 193.78" fill="#263238"/>
<path d="M99.8011 224.7L110.091 284.34C110.517 286.836 111.434 289.223 112.787 291.364C114.14 293.504 115.903 295.355 117.975 296.811C120.047 298.267 122.387 299.298 124.86 299.845C127.332 300.393 129.888 300.445 132.381 300C137.104 299.154 141.34 296.57 144.253 292.758C147.166 288.945 148.546 284.179 148.121 279.4C147.651 274.11 147.251 269.73 147.251 269.73C147.251 269.73 162.191 265.89 160.901 250.73C160.271 243.39 157.761 228.38 155.321 214.82C154.056 207.802 150.195 201.517 144.506 197.216C138.818 192.915 131.718 190.914 124.621 191.61L123.161 191.75C119.442 192.333 115.877 193.655 112.677 195.638C109.477 197.621 106.706 200.225 104.529 203.296C102.352 206.367 100.811 209.844 99.9995 213.52C99.1875 217.196 99.12 220.997 99.8011 224.7Z" fill="#B78876"/>
<path d="M152.13 224.61C152.196 225.174 152.036 225.741 151.686 226.189C151.336 226.636 150.824 226.928 150.26 227C149.987 227.05 149.707 227.045 149.436 226.984C149.166 226.924 148.91 226.809 148.684 226.648C148.458 226.486 148.267 226.281 148.122 226.045C147.977 225.808 147.881 225.545 147.84 225.27C147.775 224.706 147.935 224.139 148.285 223.691C148.635 223.244 149.147 222.953 149.71 222.88C149.983 222.83 150.264 222.835 150.535 222.896C150.805 222.956 151.061 223.071 151.287 223.232C151.513 223.394 151.704 223.599 151.849 223.835C151.994 224.072 152.089 224.336 152.13 224.61Z" fill="#263238"/>
<path d="M152.79 222.54C152.55 222.84 150.79 221.79 148.46 222.02C146.13 222.25 144.53 223.59 144.25 223.33C144.12 223.21 144.34 222.68 145.03 222.06C145.972 221.261 147.14 220.775 148.37 220.67C149.581 220.549 150.8 220.815 151.85 221.43C152.62 221.91 152.91 222.4 152.79 222.54Z" fill="#263238"/>
<path d="M129.33 227.28C129.387 227.843 129.222 228.406 128.872 228.851C128.521 229.295 128.011 229.585 127.45 229.66C127.177 229.709 126.897 229.702 126.627 229.641C126.357 229.58 126.101 229.465 125.876 229.304C125.65 229.143 125.459 228.939 125.314 228.703C125.169 228.467 125.072 228.204 125.03 227.93C124.97 227.367 125.132 226.802 125.481 226.356C125.83 225.91 126.339 225.617 126.9 225.54C127.174 225.492 127.455 225.498 127.727 225.56C127.998 225.621 128.255 225.737 128.481 225.899C128.707 226.061 128.899 226.267 129.045 226.504C129.191 226.741 129.287 227.005 129.33 227.28Z" fill="#263238"/>
<path d="M129.921 225.2C129.681 225.51 127.921 224.46 125.591 224.69C123.261 224.92 121.671 226.26 121.381 226C121.251 225.88 121.471 225.35 122.161 224.73C123.105 223.934 124.271 223.449 125.501 223.34C126.713 223.214 127.932 223.481 128.981 224.1C129.751 224.58 130.001 225.07 129.921 225.2Z" fill="#263238"/>
<path d="M140.071 241.67C140.071 241.53 141.471 241.14 143.781 240.61C144.371 240.49 144.931 240.32 144.991 239.9C144.974 239.283 144.775 238.685 144.421 238.18L142.211 233.82C139.141 227.6 136.861 222.47 137.111 222.35C137.361 222.23 140.051 227.17 143.111 233.35L145.241 237.75C145.684 238.43 145.872 239.245 145.771 240.05C145.71 240.275 145.599 240.482 145.444 240.656C145.29 240.829 145.097 240.964 144.881 241.05C144.558 241.168 144.222 241.249 143.881 241.29C142.631 241.571 141.351 241.699 140.071 241.67Z" fill="#263238"/>
<path d="M129.63 216C129.46 216.66 127.11 216.58 124.41 217.18C121.71 217.78 119.56 218.74 119.15 218.18C118.96 217.93 119.28 217.29 120.15 216.59C121.261 215.713 122.563 215.11 123.95 214.83C125.334 214.525 126.771 214.556 128.14 214.92C129.15 215.25 129.7 215.7 129.63 216Z" fill="#263238"/>
<path d="M151.281 215.87C150.921 216.44 149.281 216.05 147.281 216.21C145.281 216.37 143.751 216.92 143.281 216.4C143.091 216.15 143.281 215.59 143.961 215.02C144.856 214.312 145.95 213.9 147.091 213.84C148.227 213.747 149.363 214.013 150.341 214.6C151.151 215.08 151.431 215.6 151.281 215.87Z" fill="#263238"/>
<path d="M114.641 206.46L114.561 206.54C112.332 208.679 111.014 211.594 110.881 214.68C110.881 214.79 110.881 214.9 110.881 214.99C110.711 219.38 111.241 223.77 111.031 228.15C110.821 232.53 109.751 237.07 106.841 240.36C105.651 241.71 103.411 242.78 102.191 241.45C101.766 240.89 101.51 240.221 101.451 239.52C99.6308 229.16 95.8708 220.17 94.8308 209.24C94.6816 207.778 94.8842 206.302 95.4218 204.935C95.9593 203.568 96.8162 202.349 97.9208 201.38C100.041 199.51 102.671 197.54 105.331 198.5C107.991 199.46 111.741 203.89 113.911 205.71" fill="#263238"/>
<path d="M105.581 231.06C105.311 230.98 94.8606 229 96.2006 239.33C97.5406 249.66 107.641 246.19 107.621 245.89C107.601 245.59 105.581 231.06 105.581 231.06Z" fill="#B78876"/>
<path d="M104 242.39C104 242.39 103.84 242.54 103.55 242.71C103.352 242.831 103.131 242.913 102.901 242.949C102.671 242.985 102.436 242.975 102.21 242.92C101.07 242.66 99.9202 241.04 99.6302 239.19C99.4882 238.305 99.5463 237.4 99.8002 236.54C99.8571 236.204 99.9941 235.887 100.2 235.616C100.405 235.344 100.673 235.126 100.98 234.98C101.18 234.902 101.4 234.895 101.604 234.961C101.808 235.026 101.984 235.16 102.1 235.34C102.28 235.61 102.24 235.83 102.3 235.84C102.36 235.85 102.5 235.64 102.36 235.22C102.27 234.97 102.097 234.759 101.87 234.62C101.565 234.452 101.208 234.406 100.87 234.49C100.456 234.63 100.084 234.873 99.7902 235.197C99.4962 235.521 99.2897 235.914 99.1902 236.34C98.8652 237.305 98.7795 238.335 98.9402 239.34C99.2802 241.41 100.6 243.22 102.15 243.46C102.438 243.507 102.733 243.487 103.012 243.402C103.291 243.317 103.547 243.169 103.76 242.97C104 242.64 104 242.4 104 242.39Z" fill="#7C5142"/>
<path d="M105.12 200.14C102.12 196.24 108.58 189.6 113.54 187.49C118.5 185.38 125.49 187.21 130.75 188.4C134.06 189.16 137.41 190.33 140.75 189.86C142.99 189.413 145.15 188.634 147.16 187.55C149.168 186.448 151.38 185.768 153.66 185.55C154.802 185.463 155.946 185.69 156.969 186.207C157.991 186.723 158.852 187.509 159.46 188.48C160.52 190.48 159.57 193.48 157.35 194.03C158.033 193.56 158.82 193.263 159.642 193.165C160.465 193.066 161.3 193.168 162.074 193.463C162.849 193.758 163.54 194.237 164.089 194.858C164.638 195.479 165.028 196.224 165.225 197.029C165.422 197.834 165.421 198.675 165.222 199.479C165.023 200.284 164.631 201.028 164.081 201.648C163.531 202.267 162.838 202.744 162.063 203.037C161.288 203.33 160.453 203.431 159.63 203.33C161 202.07 163.44 203.7 163.44 205.55C163.44 207.4 161.89 208.92 160.27 209.83C156.13 212.15 151.03 212.03 146.41 210.96C141.79 209.89 137.41 207.96 132.81 206.76C128.21 205.56 120.5 203.4 116.2 205.41C113.04 206.88 111.14 211.05 109.2 210.41C108.282 210.029 107.466 209.438 106.819 208.684C106.171 207.93 105.709 207.035 105.47 206.07C105.023 204.13 104.895 202.131 105.09 200.15" fill="#263238"/>
<path d="M105.711 232.83C105.84 238.322 106.469 243.792 107.591 249.17C108.712 254.567 111.273 259.56 115.001 263.62C120.001 268.75 126.561 273.62 133.661 274.83C141.411 276.11 150.891 274.49 157.201 269.83C160.201 267.62 162.371 262.83 161.441 259.21C162.711 258.611 163.798 257.683 164.589 256.522C165.38 255.362 165.847 254.011 165.941 252.61C166.101 249.81 164.391 246.31 162.181 245.94C163.841 245.66 164.321 243.02 163.691 241.53C163.061 240.04 160.871 239.59 159.211 239.91C157.57 240.34 156.044 241.125 154.741 242.21C153.445 243.297 151.983 244.168 150.411 244.79C145.051 246.53 139.621 241.79 133.991 242.02C128.901 242.22 124.371 246.45 119.321 245.74C117.919 245.473 116.589 244.914 115.418 244.099C114.246 243.284 113.259 242.231 112.521 241.01C110.961 238.62 111.641 229.79 111.031 227.01" fill="#263238"/>
<g opacity="0.6">
<path d="M146.561 256.64C146.14 256.542 145.725 256.415 145.321 256.26C144.342 255.98 143.311 255.929 142.309 256.111C141.306 256.293 140.359 256.703 139.541 257.31C138.901 257.77 138.541 258.14 138.541 258.09C138.541 258.04 138.741 257.6 139.351 257.09C140.172 256.367 141.176 255.882 142.253 255.688C143.33 255.495 144.439 255.599 145.461 255.99C146.201 256.24 146.591 256.59 146.561 256.64Z" fill="#455A64"/>
</g>
<path d="M135.611 245.15C135.991 245.09 136.241 247.62 138.611 249.15C140.981 250.68 143.611 250.2 143.671 250.55C143.721 250.7 143.121 251.1 141.981 251.24C140.503 251.413 139.012 251.059 137.771 250.24C136.581 249.446 135.749 248.219 135.451 246.82C135.221 245.8 135.441 245.15 135.611 245.15Z" fill="white"/>
<path d="M128.09 273.14C128.316 273.192 128.534 273.272 128.74 273.38C129.17 273.54 129.8 273.76 130.63 273.99C132.982 274.626 135.396 275.005 137.83 275.12C139.497 275.218 141.168 275.185 142.83 275.02C144.746 274.848 146.639 274.48 148.48 273.92C150.512 273.313 152.45 272.428 154.24 271.29C156.186 270.116 157.884 268.574 159.24 266.75C160.85 264.602 161.567 261.915 161.24 259.25V259.04L161.42 258.96C162.664 258.382 163.741 257.498 164.55 256.39C164.942 255.867 165.278 255.304 165.55 254.71C165.789 254.133 165.937 253.522 165.99 252.9C166.099 251.773 165.938 250.637 165.52 249.585C165.103 248.533 164.441 247.596 163.59 246.85L163.44 246.73L163.56 246.58C164.011 246.008 164.305 245.328 164.414 244.607C164.523 243.886 164.442 243.15 164.18 242.47C163.974 241.954 163.664 241.487 163.268 241.098C162.872 240.709 162.399 240.407 161.88 240.21C161.217 239.945 160.5 239.846 159.79 239.92C159.3 239.98 159.06 240.07 159.05 240.04C159.281 239.93 159.527 239.856 159.78 239.82C160.73 239.666 161.704 239.831 162.55 240.288C163.397 240.746 164.068 241.471 164.46 242.35C164.756 243.083 164.856 243.881 164.751 244.664C164.646 245.448 164.339 246.191 163.86 246.82V246.55C164.773 247.33 165.488 248.317 165.943 249.428C166.399 250.539 166.583 251.743 166.48 252.94C166.429 253.627 166.27 254.302 166.01 254.94C165.72 255.567 165.368 256.163 164.96 256.72C164.109 257.907 162.965 258.855 161.64 259.47L161.79 259.17C162.191 261.97 161.473 264.816 159.79 267.09C158.394 268.968 156.645 270.554 154.64 271.76C152.814 272.922 150.83 273.814 148.75 274.41C146.877 274.973 144.949 275.335 143 275.49C141.306 275.624 139.604 275.624 137.91 275.49C135.457 275.337 133.031 274.897 130.68 274.18C130.043 273.982 129.418 273.745 128.81 273.47C128.559 273.386 128.317 273.275 128.09 273.14Z" fill="#455A64"/>
<path d="M82.7612 246.75C82.5698 246.697 82.39 246.609 82.2313 246.49C81.7807 246.153 81.4341 245.695 81.2313 245.17C80.8933 244.325 80.8201 243.397 81.0212 242.51C81.3367 241.335 82.0419 240.302 83.0212 239.58C84.1718 238.713 85.455 238.037 86.8212 237.58C88.3523 237.099 89.8327 236.469 91.2412 235.7C92.7235 234.762 93.8849 233.394 94.5712 231.78C95.3241 230.043 95.7251 228.173 95.7512 226.28C95.8312 222.37 94.9312 218.66 94.8312 215.21C94.7312 211.76 95.3312 208.54 96.9012 206.38C98.0771 204.648 99.8625 203.424 101.901 202.95C102.454 202.84 103.02 202.813 103.581 202.87C103.777 202.893 103.971 202.929 104.161 202.98C103.42 202.945 102.678 203.002 101.951 203.15C99.9861 203.669 98.2809 204.894 97.1613 206.59C95.7013 208.69 95.0912 211.81 95.2712 215.19C95.4512 218.57 96.2712 222.28 96.2712 226.3C96.2296 228.265 95.7979 230.203 95.0012 232C94.2661 233.703 93.0273 235.141 91.4512 236.12C90.0041 236.903 88.4792 237.533 86.9012 238C85.5739 238.42 84.3217 239.048 83.1912 239.86C82.2627 240.517 81.5827 241.469 81.2612 242.56C81.0433 243.392 81.0817 244.27 81.3712 245.08C81.6348 245.776 82.1242 246.364 82.7612 246.75Z" fill="#455A64"/>
<path d="M157.73 193.86C157.872 193.774 158.023 193.703 158.18 193.65C158.37 193.565 158.567 193.498 158.77 193.45C159.041 193.37 159.319 193.313 159.6 193.28C160.533 193.178 161.477 193.29 162.361 193.607C163.244 193.924 164.044 194.438 164.7 195.11C165.356 195.99 165.83 196.99 166.096 198.055C166.362 199.119 166.415 200.225 166.25 201.31C166.054 202.655 165.59 203.947 164.885 205.11C164.181 206.273 163.251 207.283 162.15 208.08C159.614 209.926 156.584 210.971 153.45 211.08C150.052 211.214 146.653 210.85 143.36 210C138.129 208.716 133.167 206.519 128.7 203.51C126.79 202.197 124.785 201.031 122.7 200.02C120.874 199.175 118.908 198.673 116.9 198.54C113.975 198.338 111.047 198.882 108.39 200.12C106.52 201 105.63 201.76 105.59 201.7C106.411 200.993 107.322 200.398 108.3 199.93C110.973 198.608 113.943 198.002 116.92 198.17C118.993 198.276 121.027 198.768 122.92 199.62C125.035 200.628 127.071 201.795 129.01 203.11C133.445 206.06 138.358 208.218 143.53 209.49C146.772 210.341 150.12 210.718 153.47 210.61C156.509 210.504 159.448 209.502 161.92 207.73C162.981 206.971 163.88 206.01 164.567 204.901C165.254 203.792 165.713 202.558 165.92 201.27C166.096 200.228 166.064 199.161 165.825 198.131C165.587 197.101 165.146 196.129 164.53 195.27C163.909 194.62 163.153 194.115 162.314 193.792C161.476 193.468 160.576 193.335 159.68 193.4C159.019 193.503 158.367 193.657 157.73 193.86Z" fill="#455A64"/>
<path d="M152.43 185.05C152.429 185.837 152.269 186.616 151.96 187.34C151.093 189.33 149.587 190.973 147.68 192.01C146.393 192.759 144.979 193.267 143.51 193.51C141.825 193.756 140.114 193.756 138.43 193.51C134.86 193.06 131.17 191.66 127.29 190.45C123.41 189.24 119.5 188.52 116.06 189.26C113.012 189.926 110.251 191.535 108.17 193.86C106.752 195.411 105.667 197.235 104.98 199.22C104.52 200.64 104.43 201.47 104.37 201.46C104.345 201.261 104.345 201.059 104.37 200.86C104.45 200.285 104.574 199.717 104.74 199.16C105.361 197.106 106.422 195.212 107.85 193.61C109.951 191.182 112.777 189.493 115.91 188.79C119.47 188 123.49 188.73 127.39 189.95C131.29 191.17 134.95 192.57 138.44 193.03C140.081 193.27 141.749 193.27 143.39 193.03C144.816 192.814 146.191 192.344 147.45 191.64C149.314 190.662 150.811 189.108 151.72 187.21C152.014 186.51 152.251 185.788 152.43 185.05Z" fill="#455A64"/>
<path d="M228.119 121.76C228.029 121.87 222.409 117.3 215.559 111.55C208.709 105.8 203.239 101 203.339 100.93C203.439 100.86 209.049 105.39 215.899 111.15C222.749 116.91 228.219 121.65 228.119 121.76Z" fill="#263238"/>
<path d="M256.639 114.91C256.499 114.91 255.929 106.03 255.379 95.0599C254.829 84.0899 254.489 75.1899 254.629 75.1799C254.769 75.1699 255.339 84.0599 255.899 95.0399C256.459 106.02 256.779 114.91 256.639 114.91Z" fill="#263238"/>
<path d="M238.48 108.56C238.34 108.56 236.59 103.56 234.56 97.23C232.53 90.9 231 85.79 231.14 85.75C231.28 85.71 233.03 90.75 235.06 97.07C237.09 103.39 238.61 108.52 238.48 108.56Z" fill="#263238"/>
<path d="M222.29 131.14C219.657 130.214 217.082 129.128 214.58 127.89C212.005 126.804 209.5 125.558 207.08 124.16C209.713 125.086 212.288 126.172 214.79 127.41C217.364 128.498 219.869 129.744 222.29 131.14Z" fill="#263238"/>
<path d="M196 119.65C196 119.79 195.15 119.81 194.14 119.65C193.13 119.49 192.33 119.31 192.35 119.17C192.37 119.03 193.2 119.01 194.2 119.17C195.2 119.33 196 119.51 196 119.65Z" fill="#263238"/>
<path d="M231.789 79.2899C231.639 79.2899 231.529 78.4799 231.529 77.4699C231.529 76.4599 231.639 75.6399 231.789 75.6399C231.939 75.6399 232.049 76.4599 232.049 77.4699C232.049 78.4799 231.929 79.2899 231.789 79.2899Z" fill="#263238"/>
<path d="M292.001 93.4099C292.111 93.5099 287.491 98.7999 281.701 105.23C275.911 111.66 271.131 116.8 271.001 116.7C270.871 116.6 275.511 111.32 281.301 104.88C287.091 98.4399 291.901 93.3199 292.001 93.4099Z" fill="#263238"/>
<path d="M299.35 86.1398C299.45 86.2398 298.92 86.9398 298.16 87.6998C297.4 88.4598 296.71 88.9798 296.61 88.8798C296.51 88.7798 297.04 88.0799 297.8 87.3299C298.56 86.5799 299.25 85.9998 299.35 86.1398Z" fill="#263238"/>
<path d="M317.171 111.74C316.742 112.049 316.287 112.32 315.811 112.55C314.921 113.04 313.621 113.73 312.001 114.55C308.751 116.19 304.201 118.33 299.081 120.46C293.961 122.59 289.231 124.29 285.771 125.46C284.051 126.03 282.651 126.46 281.671 126.75C281.175 126.93 280.662 127.061 280.141 127.14C280.614 126.906 281.105 126.712 281.611 126.56L285.611 125.11C289.031 123.88 293.721 122.11 298.841 120.01C303.961 117.91 308.511 115.8 311.841 114.25L315.721 112.41C316.187 112.151 316.671 111.927 317.171 111.74Z" fill="#263238"/>
<path d="M302.55 136.36C301.696 136.74 300.804 137.032 299.89 137.23C298.23 137.69 295.89 138.23 293.31 138.68C290.73 139.13 288.31 139.38 286.62 139.5C285.695 139.618 284.759 139.634 283.83 139.55C284.738 139.341 285.661 139.2 286.59 139.13C288.29 138.92 290.64 138.6 293.22 138.13C295.8 137.66 298.13 137.21 299.81 136.85C300.706 136.603 301.624 136.438 302.55 136.36Z" fill="#263238"/>
<path d="M315.84 133.9C313.936 134.247 311.984 134.247 310.08 133.9C311.984 133.553 313.936 133.553 315.84 133.9Z" fill="#263238"/>
<path d="M240.68 382C242.088 382.239 243.433 382.759 244.635 383.529C245.838 384.299 246.873 385.302 247.68 386.48C249.273 388.859 250.299 391.572 250.68 394.41C251.59 399.85 250.12 406.03 248.1 411.17C242.55 408.56 239.59 402.1 238.3 398.72C236.3 393.39 235.79 382.5 240.63 382" fill="#673BB7"/>
<path d="M256.329 418.86C255.493 417.497 255.033 415.937 254.997 414.338C254.96 412.74 255.347 411.16 256.119 409.76C256.91 408.373 257.971 407.158 259.238 406.186C260.505 405.214 261.954 404.505 263.499 404.1C264.19 403.836 264.93 403.727 265.667 403.778C266.405 403.83 267.122 404.042 267.769 404.4C268.308 404.832 268.721 405.4 268.968 406.045C269.214 406.69 269.283 407.389 269.169 408.07C268.921 409.431 268.321 410.703 267.429 411.76C264.529 415.5 261.049 418.58 256.329 418.86Z" fill="#673BB7"/>
<path d="M254.93 436.1C254.814 435.731 254.75 435.347 254.74 434.96C254.67 434.22 254.57 433.14 254.5 431.81C254.247 428.331 254.459 424.833 255.13 421.41C255.847 417.952 257.481 414.751 259.86 412.14C260.593 411.374 261.42 410.702 262.32 410.14C262.62 409.91 262.959 409.734 263.32 409.62C262.183 410.473 261.119 411.42 260.14 412.45C257.921 415.064 256.395 418.193 255.7 421.55C255.038 424.928 254.769 428.371 254.9 431.81C254.996 433.238 255.006 434.671 254.93 436.1Z" fill="#263238"/>
<path d="M242 390.29C242.28 390.864 242.514 391.459 242.7 392.07C243.11 393.23 243.7 394.91 244.36 397C245.73 401.18 247.52 407 249.36 413.45C251.2 419.9 252.68 425.8 253.7 430.08C254.21 432.22 254.6 433.95 254.85 435.16C255.016 435.776 255.13 436.405 255.19 437.04C254.946 436.452 254.755 435.843 254.62 435.22C254.27 433.92 253.82 432.22 253.28 430.22C252.15 425.97 250.58 420.1 248.76 413.65C246.94 407.2 245.22 401.37 243.96 397.16L242.49 392.16C242.275 391.551 242.111 390.926 242 390.29Z" fill="#263238"/>
<path d="M248.94 424C247.544 420.942 245.442 418.259 242.806 416.173C240.17 414.087 237.076 412.656 233.78 412C232.1 411.68 230.03 411.72 229.09 413.16C228.15 414.6 228.96 416.52 229.97 417.9C232.125 420.762 235.08 422.921 238.462 424.103C241.844 425.284 245.501 425.437 248.97 424.54" fill="#673BB7"/>
<path d="M235.619 416.79C235.993 416.776 236.367 416.816 236.729 416.91C237.159 416.969 237.583 417.059 237.999 417.18C238.561 417.312 239.116 417.476 239.659 417.67C241.08 418.168 242.447 418.808 243.739 419.58C246.93 421.468 249.63 424.082 251.619 427.21C252.419 428.473 253.089 429.813 253.619 431.21C253.835 431.745 254.019 432.293 254.169 432.85C254.308 433.265 254.415 433.689 254.489 434.12C254.595 434.477 254.642 434.848 254.629 435.22C254.519 435.22 254.209 433.69 253.219 431.38C252.631 430.03 251.925 428.735 251.109 427.51C250.1 426.019 248.944 424.632 247.659 423.37C246.358 422.128 244.938 421.016 243.419 420.05C242.167 419.27 240.848 418.601 239.479 418.05C237.159 417.17 235.599 416.91 235.619 416.79Z" fill="#263238"/>
<ellipse cx="14.6612" cy="242.68" rx="3.66123" ry="3.68" fill="#673BB7" fill-opacity="0.5"/>
<ellipse cx="14.6612" cy="263.84" rx="3.66123" ry="3.68" fill="#673BB7" fill-opacity="0.5"/>
<ellipse cx="14.6612" cy="285" rx="3.66123" ry="3.68" fill="#673BB7" fill-opacity="0.5"/>
<ellipse cx="14.6612" cy="306.16" rx="3.66123" ry="3.68" fill="#673BB7" fill-opacity="0.5"/>
<ellipse cx="15.1183" cy="327.32" rx="3.66123" ry="3.68" fill="#673BB7" fill-opacity="0.5"/>
<ellipse cx="35.714" cy="242.68" rx="3.66123" ry="3.68" fill="#673BB7" fill-opacity="0.5"/>
<ellipse cx="35.714" cy="263.84" rx="3.66123" ry="3.68" fill="#673BB7" fill-opacity="0.5"/>
<ellipse cx="35.714" cy="285" rx="3.66123" ry="3.68" fill="#673BB7" fill-opacity="0.5"/>
<ellipse cx="35.714" cy="306.16" rx="3.66123" ry="3.68" fill="#673BB7" fill-opacity="0.5"/>
<ellipse cx="36.171" cy="327.32" rx="3.66123" ry="3.68" fill="#673BB7" fill-opacity="0.5"/>
<ellipse cx="56.7647" cy="242.68" rx="3.66123" ry="3.68" fill="#673BB7" fill-opacity="0.5"/>
<ellipse cx="56.7647" cy="263.84" rx="3.66123" ry="3.68" fill="#673BB7" fill-opacity="0.5"/>
<ellipse cx="56.7647" cy="285" rx="3.66123" ry="3.68" fill="#673BB7" fill-opacity="0.5"/>
<ellipse cx="56.7647" cy="306.16" rx="3.66123" ry="3.68" fill="#673BB7" fill-opacity="0.5"/>
<ellipse cx="57.2218" cy="327.32" rx="3.66123" ry="3.68" fill="#673BB7" fill-opacity="0.5"/>
<ellipse cx="77.8175" cy="242.68" rx="3.66123" ry="3.68" fill="#673BB7" fill-opacity="0.5"/>
<ellipse cx="77.8175" cy="263.84" rx="3.66123" ry="3.68" fill="#673BB7" fill-opacity="0.5"/>
<ellipse cx="77.8175" cy="285" rx="3.66123" ry="3.68" fill="#673BB7" fill-opacity="0.5"/>
<ellipse cx="77.8175" cy="306.16" rx="3.66123" ry="3.68" fill="#673BB7" fill-opacity="0.5"/>
<ellipse cx="78.2745" cy="327.32" rx="3.66123" ry="3.68" fill="#673BB7" fill-opacity="0.5"/>
<ellipse cx="98.8702" cy="242.68" rx="3.66123" ry="3.68" fill="#673BB7" fill-opacity="0.5"/>
<ellipse cx="98.8702" cy="263.84" rx="3.66123" ry="3.68" fill="#673BB7" fill-opacity="0.5"/>
<ellipse cx="98.8702" cy="285" rx="3.66123" ry="3.68" fill="#673BB7" fill-opacity="0.5"/>
<ellipse cx="98.8702" cy="306.16" rx="3.66123" ry="3.68" fill="#673BB7" fill-opacity="0.5"/>
<ellipse cx="99.3272" cy="327.32" rx="3.66123" ry="3.68" fill="#673BB7" fill-opacity="0.5"/>
<ellipse cx="401.661" cy="101.68" rx="3.66123" ry="3.68" fill="#673BB7" fill-opacity="0.5"/>
<ellipse cx="401.661" cy="122.84" rx="3.66123" ry="3.68" fill="#673BB7" fill-opacity="0.5"/>
<ellipse cx="401.661" cy="144" rx="3.66123" ry="3.68" fill="#673BB7" fill-opacity="0.5"/>
<ellipse cx="401.661" cy="165.16" rx="3.66123" ry="3.68" fill="#673BB7" fill-opacity="0.5"/>
<ellipse cx="402.118" cy="186.32" rx="3.66123" ry="3.68" fill="#673BB7" fill-opacity="0.5"/>
<ellipse cx="422.714" cy="101.68" rx="3.66123" ry="3.68" fill="#673BB7" fill-opacity="0.5"/>
<ellipse cx="422.714" cy="122.84" rx="3.66123" ry="3.68" fill="#673BB7" fill-opacity="0.5"/>
<ellipse cx="422.714" cy="144" rx="3.66123" ry="3.68" fill="#673BB7" fill-opacity="0.5"/>
<ellipse cx="422.714" cy="165.16" rx="3.66123" ry="3.68" fill="#673BB7" fill-opacity="0.5"/>
<ellipse cx="423.171" cy="186.32" rx="3.66123" ry="3.68" fill="#673BB7" fill-opacity="0.5"/>
<ellipse cx="443.765" cy="101.68" rx="3.66123" ry="3.68" fill="#673BB7" fill-opacity="0.5"/>
<ellipse cx="443.765" cy="122.84" rx="3.66123" ry="3.68" fill="#673BB7" fill-opacity="0.5"/>
<ellipse cx="443.765" cy="144" rx="3.66123" ry="3.68" fill="#673BB7" fill-opacity="0.5"/>
<ellipse cx="443.765" cy="165.16" rx="3.66123" ry="3.68" fill="#673BB7" fill-opacity="0.5"/>
<ellipse cx="444.222" cy="186.32" rx="3.66123" ry="3.68" fill="#673BB7" fill-opacity="0.5"/>
<ellipse cx="464.817" cy="101.68" rx="3.66123" ry="3.68" fill="#673BB7" fill-opacity="0.5"/>
<ellipse cx="464.817" cy="122.84" rx="3.66123" ry="3.68" fill="#673BB7" fill-opacity="0.5"/>
<ellipse cx="464.817" cy="144" rx="3.66123" ry="3.68" fill="#673BB7" fill-opacity="0.5"/>
<ellipse cx="464.817" cy="165.16" rx="3.66123" ry="3.68" fill="#673BB7" fill-opacity="0.5"/>
<ellipse cx="465.275" cy="186.32" rx="3.66123" ry="3.68" fill="#673BB7" fill-opacity="0.5"/>
<ellipse cx="485.87" cy="101.68" rx="3.66123" ry="3.68" fill="#673BB7" fill-opacity="0.5"/>
<ellipse cx="485.87" cy="122.84" rx="3.66123" ry="3.68" fill="#673BB7" fill-opacity="0.5"/>
<ellipse cx="485.87" cy="144" rx="3.66123" ry="3.68" fill="#673BB7" fill-opacity="0.5"/>
<ellipse cx="485.87" cy="165.16" rx="3.66123" ry="3.68" fill="#673BB7" fill-opacity="0.5"/>
<ellipse cx="486.327" cy="186.32" rx="3.66123" ry="3.68" fill="#673BB7" fill-opacity="0.5"/>
</svg>
